<?xml version="1.0" encoding="utf-8" standalone="no"?>
<!DOCTYPE svg PUBLIC "-//W3C//DTD SVG 1.1//EN"
  "http://www.w3.org/Graphics/SVG/1.1/DTD/svg11.dtd">
<svg xmlns:xlink="http://www.w3.org/1999/xlink" width="648pt" height="259.2pt" viewBox="0 0 648 259.2" xmlns="http://www.w3.org/2000/svg" version="1.1">
 <metadata>
  <rdf:RDF xmlns:dc="http://purl.org/dc/elements/1.1/" xmlns:cc="http://creativecommons.org/ns#" xmlns:rdf="http://www.w3.org/1999/02/22-rdf-syntax-ns#">
   <cc:Work>
    <dc:type rdf:resource="http://purl.org/dc/dcmitype/StillImage"/>
    <dc:date>2026-06-08T21:33:14.151452</dc:date>
    <dc:format>image/svg+xml</dc:format>
    <dc:creator>
     <cc:Agent>
      <dc:title>Matplotlib v3.10.9, https://matplotlib.org/</dc:title>
     </cc:Agent>
    </dc:creator>
   </cc:Work>
  </rdf:RDF>
 </metadata>
 <defs>
  <style type="text/css">*{stroke-linejoin: round; stroke-linecap: butt}</style>
 </defs>
 <g id="figure_1">
  <g id="patch_1">
   <path d="M 0 259.2 
L 648 259.2 
L 648 0 
L 0 0 
z
" style="fill: #ffffff"/>
  </g>
  <g id="axes_1">
   <g id="patch_2">
    <path d="M 50.87 217.24 
L 335.113179 217.24 
L 335.113179 26.88 
L 50.87 26.88 
z
" style="fill: #ffffff"/>
   </g>
   <g id="patch_3">
    <path d="M 63.790145 217.24 
L 70.968003 217.24 
L 70.968003 213.540097 
L 63.790145 213.540097 
z
" clip-path="url(#pe9b23e73bb)" style="fill: #6aaed6; stroke: #ffffff; stroke-linejoin: miter"/>
   </g>
   <g id="patch_4">
    <path d="M 70.968003 217.24 
L 78.145861 217.24 
L 78.145861 217.24 
L 70.968003 217.24 
z
" clip-path="url(#pe9b23e73bb)" style="fill: #6aaed6; stroke: #ffffff; stroke-linejoin: miter"/>
   </g>
   <g id="patch_5">
    <path d="M 78.145861 217.24 
L 85.323719 217.24 
L 85.323719 211.690146 
L 78.145861 211.690146 
z
" clip-path="url(#pe9b23e73bb)" style="fill: #6aaed6; stroke: #ffffff; stroke-linejoin: miter"/>
   </g>
   <g id="patch_6">
    <path d="M 85.323719 217.24 
L 92.501577 217.24 
L 92.501577 217.24 
L 85.323719 217.24 
z
" clip-path="url(#pe9b23e73bb)" style="fill: #6aaed6; stroke: #ffffff; stroke-linejoin: miter"/>
   </g>
   <g id="patch_7">
    <path d="M 92.501577 217.24 
L 99.679435 217.24 
L 99.679435 213.540097 
L 92.501577 213.540097 
z
" clip-path="url(#pe9b23e73bb)" style="fill: #6aaed6; stroke: #ffffff; stroke-linejoin: miter"/>
   </g>
   <g id="patch_8">
    <path d="M 99.679435 217.24 
L 106.857293 217.24 
L 106.857293 211.690146 
L 99.679435 211.690146 
z
" clip-path="url(#pe9b23e73bb)" style="fill: #6aaed6; stroke: #ffffff; stroke-linejoin: miter"/>
   </g>
   <g id="patch_9">
    <path d="M 106.857293 217.24 
L 114.035151 217.24 
L 114.035151 209.840194 
L 106.857293 209.840194 
z
" clip-path="url(#pe9b23e73bb)" style="fill: #6aaed6; stroke: #ffffff; stroke-linejoin: miter"/>
   </g>
   <g id="patch_10">
    <path d="M 114.035151 217.24 
L 121.213009 217.24 
L 121.213009 204.29034 
L 114.035151 204.29034 
z
" clip-path="url(#pe9b23e73bb)" style="fill: #6aaed6; stroke: #ffffff; stroke-linejoin: miter"/>
   </g>
   <g id="patch_11">
    <path d="M 121.213009 217.24 
L 128.390867 217.24 
L 128.390867 211.690146 
L 121.213009 211.690146 
z
" clip-path="url(#pe9b23e73bb)" style="fill: #6aaed6; stroke: #ffffff; stroke-linejoin: miter"/>
   </g>
   <g id="patch_12">
    <path d="M 128.390867 217.24 
L 135.568725 217.24 
L 135.568725 209.840194 
L 128.390867 209.840194 
z
" clip-path="url(#pe9b23e73bb)" style="fill: #6aaed6; stroke: #ffffff; stroke-linejoin: miter"/>
   </g>
   <g id="patch_13">
    <path d="M 135.568725 217.24 
L 142.746583 217.24 
L 142.746583 207.990243 
L 135.568725 207.990243 
z
" clip-path="url(#pe9b23e73bb)" style="fill: #6aaed6; stroke: #ffffff; stroke-linejoin: miter"/>
   </g>
   <g id="patch_14">
    <path d="M 142.746583 217.24 
L 149.924441 217.24 
L 149.924441 182.090923 
L 142.746583 182.090923 
z
" clip-path="url(#pe9b23e73bb)" style="fill: #6aaed6; stroke: #ffffff; stroke-linejoin: miter"/>
   </g>
   <g id="patch_15">
    <path d="M 149.924441 217.24 
L 157.102299 217.24 
L 157.102299 185.790826 
L 149.924441 185.790826 
z
" clip-path="url(#pe9b23e73bb)" style="fill: #6aaed6; stroke: #ffffff; stroke-linejoin: miter"/>
   </g>
   <g id="patch_16">
    <path d="M 157.102299 217.24 
L 164.280157 217.24 
L 164.280157 174.691118 
L 157.102299 174.691118 
z
" clip-path="url(#pe9b23e73bb)" style="fill: #6aaed6; stroke: #ffffff; stroke-linejoin: miter"/>
   </g>
   <g id="patch_17">
    <path d="M 164.280157 217.24 
L 171.458015 217.24 
L 171.458015 174.691118 
L 164.280157 174.691118 
z
" clip-path="url(#pe9b23e73bb)" style="fill: #6aaed6; stroke: #ffffff; stroke-linejoin: miter"/>
   </g>
   <g id="patch_18">
    <path d="M 171.458015 217.24 
L 178.635873 217.24 
L 178.635873 176.541069 
L 171.458015 176.541069 
z
" clip-path="url(#pe9b23e73bb)" style="fill: #6aaed6; stroke: #ffffff; stroke-linejoin: miter"/>
   </g>
   <g id="patch_19">
    <path d="M 178.635873 217.24 
L 185.813732 217.24 
L 185.813732 132.142235 
L 178.635873 132.142235 
z
" clip-path="url(#pe9b23e73bb)" style="fill: #6aaed6; stroke: #ffffff; stroke-linejoin: miter"/>
   </g>
   <g id="patch_20">
    <path d="M 185.813732 217.24 
L 192.99159 217.24 
L 192.99159 148.791798 
L 185.813732 148.791798 
z
" clip-path="url(#pe9b23e73bb)" style="fill: #6aaed6; stroke: #ffffff; stroke-linejoin: miter"/>
   </g>
   <g id="patch_21">
    <path d="M 192.99159 217.24 
L 200.169448 217.24 
L 200.169448 146.941846 
L 192.99159 146.941846 
z
" clip-path="url(#pe9b23e73bb)" style="fill: #6aaed6; stroke: #ffffff; stroke-linejoin: miter"/>
   </g>
   <g id="patch_22">
    <path d="M 200.169448 217.24 
L 207.347306 217.24 
L 207.347306 124.74243 
L 200.169448 124.74243 
z
" clip-path="url(#pe9b23e73bb)" style="fill: #6aaed6; stroke: #ffffff; stroke-linejoin: miter"/>
   </g>
   <g id="patch_23">
    <path d="M 207.347306 217.24 
L 214.525164 217.24 
L 214.525164 113.642721 
L 207.347306 113.642721 
z
" clip-path="url(#pe9b23e73bb)" style="fill: #6aaed6; stroke: #ffffff; stroke-linejoin: miter"/>
   </g>
   <g id="patch_24">
    <path d="M 214.525164 217.24 
L 221.703022 217.24 
L 221.703022 84.043499 
L 214.525164 84.043499 
z
" clip-path="url(#pe9b23e73bb)" style="fill: #6aaed6; stroke: #ffffff; stroke-linejoin: miter"/>
   </g>
   <g id="patch_25">
    <path d="M 221.703022 217.24 
L 228.88088 217.24 
L 228.88088 87.743401 
L 221.703022 87.743401 
z
" clip-path="url(#pe9b23e73bb)" style="fill: #6aaed6; stroke: #ffffff; stroke-linejoin: miter"/>
   </g>
   <g id="patch_26">
    <path d="M 228.88088 217.24 
L 236.058738 217.24 
L 236.058738 74.793741 
L 228.88088 74.793741 
z
" clip-path="url(#pe9b23e73bb)" style="fill: #6aaed6; stroke: #ffffff; stroke-linejoin: miter"/>
   </g>
   <g id="patch_27">
    <path d="M 236.058738 217.24 
L 243.236596 217.24 
L 243.236596 35.944762 
L 236.058738 35.944762 
z
" clip-path="url(#pe9b23e73bb)" style="fill: #6aaed6; stroke: #ffffff; stroke-linejoin: miter"/>
   </g>
   <g id="patch_28">
    <path d="M 243.236596 217.24 
L 250.414454 217.24 
L 250.414454 91.443304 
L 243.236596 91.443304 
z
" clip-path="url(#pe9b23e73bb)" style="fill: #6aaed6; stroke: #ffffff; stroke-linejoin: miter"/>
   </g>
   <g id="patch_29">
    <path d="M 250.414454 217.24 
L 257.592312 217.24 
L 257.592312 111.79277 
L 250.414454 111.79277 
z
" clip-path="url(#pe9b23e73bb)" style="fill: #6aaed6; stroke: #ffffff; stroke-linejoin: miter"/>
   </g>
   <g id="patch_30">
    <path d="M 257.592312 217.24 
L 264.77017 217.24 
L 264.77017 124.74243 
L 257.592312 124.74243 
z
" clip-path="url(#pe9b23e73bb)" style="fill: #6aaed6; stroke: #ffffff; stroke-linejoin: miter"/>
   </g>
   <g id="patch_31">
    <path d="M 264.77017 217.24 
L 271.948028 217.24 
L 271.948028 128.442332 
L 264.77017 128.442332 
z
" clip-path="url(#pe9b23e73bb)" style="fill: #6aaed6; stroke: #ffffff; stroke-linejoin: miter"/>
   </g>
   <g id="patch_32">
    <path d="M 271.948028 217.24 
L 279.125886 217.24 
L 279.125886 141.391992 
L 271.948028 141.391992 
z
" clip-path="url(#pe9b23e73bb)" style="fill: #6aaed6; stroke: #ffffff; stroke-linejoin: miter"/>
   </g>
   <g id="patch_33">
    <path d="M 279.125886 217.24 
L 286.303744 217.24 
L 286.303744 167.291312 
L 279.125886 167.291312 
z
" clip-path="url(#pe9b23e73bb)" style="fill: #6aaed6; stroke: #ffffff; stroke-linejoin: miter"/>
   </g>
   <g id="patch_34">
    <path d="M 286.303744 217.24 
L 293.481602 217.24 
L 293.481602 189.490729 
L 286.303744 189.490729 
z
" clip-path="url(#pe9b23e73bb)" style="fill: #6aaed6; stroke: #ffffff; stroke-linejoin: miter"/>
   </g>
   <g id="patch_35">
    <path d="M 293.481602 217.24 
L 300.659461 217.24 
L 300.659461 209.840194 
L 293.481602 209.840194 
z
" clip-path="url(#pe9b23e73bb)" style="fill: #6aaed6; stroke: #ffffff; stroke-linejoin: miter"/>
   </g>
   <g id="patch_36">
    <path d="M 300.659461 217.24 
L 307.837319 217.24 
L 307.837319 206.140292 
L 300.659461 206.140292 
z
" clip-path="url(#pe9b23e73bb)" style="fill: #6aaed6; stroke: #ffffff; stroke-linejoin: miter"/>
   </g>
   <g id="patch_37">
    <path d="M 307.837319 217.24 
L 315.015177 217.24 
L 315.015177 213.540097 
L 307.837319 213.540097 
z
" clip-path="url(#pe9b23e73bb)" style="fill: #6aaed6; stroke: #ffffff; stroke-linejoin: miter"/>
   </g>
   <g id="patch_38">
    <path d="M 315.015177 217.24 
L 322.193035 217.24 
L 322.193035 215.390049 
L 315.015177 215.390049 
z
" clip-path="url(#pe9b23e73bb)" style="fill: #6aaed6; stroke: #ffffff; stroke-linejoin: miter"/>
   </g>
   <g id="matplotlib.axis_1">
    <g id="xtick_1">
     <g id="line2d_1">
      <defs>
       <path id="m2d3f18a802" d="M 0 0 
L 0 3.5 
" style="stroke: #000000; stroke-width: 0.8"/>
      </defs>
      <g>
       <use xlink:href="#m2d3f18a802" x="58.80711" y="217.24" style="stroke: #000000; stroke-width: 0.8"/>
      </g>
     </g>
     <g id="text_1">
      <!-- 0.5 -->
      <g transform="translate(50.855547 231.838437) scale(0.1 -0.1)">
       <defs>
        <path id="DejaVuSans-30" d="M 2034 4250 
Q 1547 4250 1301 3770 
Q 1056 3291 1056 2328 
Q 1056 1369 1301 889 
Q 1547 409 2034 409 
Q 2525 409 2770 889 
Q 3016 1369 3016 2328 
Q 3016 3291 2770 3770 
Q 2525 4250 2034 4250 
z
M 2034 4750 
Q 2819 4750 3233 4129 
Q 3647 3509 3647 2328 
Q 3647 1150 3233 529 
Q 2819 -91 2034 -91 
Q 1250 -91 836 529 
Q 422 1150 422 2328 
Q 422 3509 836 4129 
Q 1250 4750 2034 4750 
z
" transform="scale(0.015625)"/>
        <path id="DejaVuSans-2e" d="M 684 794 
L 1344 794 
L 1344 0 
L 684 0 
L 684 794 
z
" transform="scale(0.015625)"/>
        <path id="DejaVuSans-35" d="M 691 4666 
L 3169 4666 
L 3169 4134 
L 1269 4134 
L 1269 2991 
Q 1406 3038 1543 3061 
Q 1681 3084 1819 3084 
Q 2600 3084 3056 2656 
Q 3513 2228 3513 1497 
Q 3513 744 3044 326 
Q 2575 -91 1722 -91 
Q 1428 -91 1123 -41 
Q 819 9 494 109 
L 494 744 
Q 775 591 1075 516 
Q 1375 441 1709 441 
Q 2250 441 2565 725 
Q 2881 1009 2881 1497 
Q 2881 1984 2565 2268 
Q 2250 2553 1709 2553 
Q 1456 2553 1204 2497 
Q 953 2441 691 2322 
L 691 4666 
z
" transform="scale(0.015625)"/>
       </defs>
       <use xlink:href="#DejaVuSans-30"/>
       <use xlink:href="#DejaVuSans-2e" transform="translate(63.623047 0)"/>
       <use xlink:href="#DejaVuSans-35" transform="translate(95.410156 0)"/>
      </g>
     </g>
    </g>
    <g id="xtick_2">
     <g id="line2d_2">
      <g>
       <use xlink:href="#m2d3f18a802" x="119.773584" y="217.24" style="stroke: #000000; stroke-width: 0.8"/>
      </g>
     </g>
     <g id="text_2">
      <!-- 0.6 -->
      <g transform="translate(111.822022 231.838437) scale(0.1 -0.1)">
       <defs>
        <path id="DejaVuSans-36" d="M 2113 2584 
Q 1688 2584 1439 2293 
Q 1191 2003 1191 1497 
Q 1191 994 1439 701 
Q 1688 409 2113 409 
Q 2538 409 2786 701 
Q 3034 994 3034 1497 
Q 3034 2003 2786 2293 
Q 2538 2584 2113 2584 
z
M 3366 4563 
L 3366 3988 
Q 3128 4100 2886 4159 
Q 2644 4219 2406 4219 
Q 1781 4219 1451 3797 
Q 1122 3375 1075 2522 
Q 1259 2794 1537 2939 
Q 1816 3084 2150 3084 
Q 2853 3084 3261 2657 
Q 3669 2231 3669 1497 
Q 3669 778 3244 343 
Q 2819 -91 2113 -91 
Q 1303 -91 875 529 
Q 447 1150 447 2328 
Q 447 3434 972 4092 
Q 1497 4750 2381 4750 
Q 2619 4750 2861 4703 
Q 3103 4656 3366 4563 
z
" transform="scale(0.015625)"/>
       </defs>
       <use xlink:href="#DejaVuSans-30"/>
       <use xlink:href="#DejaVuSans-2e" transform="translate(63.623047 0)"/>
       <use xlink:href="#DejaVuSans-36" transform="translate(95.410156 0)"/>
      </g>
     </g>
    </g>
    <g id="xtick_3">
     <g id="line2d_3">
      <g>
       <use xlink:href="#m2d3f18a802" x="180.740059" y="217.24" style="stroke: #000000; stroke-width: 0.8"/>
      </g>
     </g>
     <g id="text_3">
      <!-- 0.7 -->
      <g transform="translate(172.788497 231.838437) scale(0.1 -0.1)">
       <defs>
        <path id="DejaVuSans-37" d="M 525 4666 
L 3525 4666 
L 3525 4397 
L 1831 0 
L 1172 0 
L 2766 4134 
L 525 4134 
L 525 4666 
z
" transform="scale(0.015625)"/>
       </defs>
       <use xlink:href="#DejaVuSans-30"/>
       <use xlink:href="#DejaVuSans-2e" transform="translate(63.623047 0)"/>
       <use xlink:href="#DejaVuSans-37" transform="translate(95.410156 0)"/>
      </g>
     </g>
    </g>
    <g id="xtick_4">
     <g id="line2d_4">
      <g>
       <use xlink:href="#m2d3f18a802" x="241.706534" y="217.24" style="stroke: #000000; stroke-width: 0.8"/>
      </g>
     </g>
     <g id="text_4">
      <!-- 0.8 -->
      <g transform="translate(233.754972 231.838437) scale(0.1 -0.1)">
       <defs>
        <path id="DejaVuSans-38" d="M 2034 2216 
Q 1584 2216 1326 1975 
Q 1069 1734 1069 1313 
Q 1069 891 1326 650 
Q 1584 409 2034 409 
Q 2484 409 2743 651 
Q 3003 894 3003 1313 
Q 3003 1734 2745 1975 
Q 2488 2216 2034 2216 
z
M 1403 2484 
Q 997 2584 770 2862 
Q 544 3141 544 3541 
Q 544 4100 942 4425 
Q 1341 4750 2034 4750 
Q 2731 4750 3128 4425 
Q 3525 4100 3525 3541 
Q 3525 3141 3298 2862 
Q 3072 2584 2669 2484 
Q 3125 2378 3379 2068 
Q 3634 1759 3634 1313 
Q 3634 634 3220 271 
Q 2806 -91 2034 -91 
Q 1263 -91 848 271 
Q 434 634 434 1313 
Q 434 1759 690 2068 
Q 947 2378 1403 2484 
z
M 1172 3481 
Q 1172 3119 1398 2916 
Q 1625 2713 2034 2713 
Q 2441 2713 2670 2916 
Q 2900 3119 2900 3481 
Q 2900 3844 2670 4047 
Q 2441 4250 2034 4250 
Q 1625 4250 1398 4047 
Q 1172 3844 1172 3481 
z
" transform="scale(0.015625)"/>
       </defs>
       <use xlink:href="#DejaVuSans-30"/>
       <use xlink:href="#DejaVuSans-2e" transform="translate(63.623047 0)"/>
       <use xlink:href="#DejaVuSans-38" transform="translate(95.410156 0)"/>
      </g>
     </g>
    </g>
    <g id="xtick_5">
     <g id="line2d_5">
      <g>
       <use xlink:href="#m2d3f18a802" x="302.673009" y="217.24" style="stroke: #000000; stroke-width: 0.8"/>
      </g>
     </g>
     <g id="text_5">
      <!-- 0.9 -->
      <g transform="translate(294.721446 231.838437) scale(0.1 -0.1)">
       <defs>
        <path id="DejaVuSans-39" d="M 703 97 
L 703 672 
Q 941 559 1184 500 
Q 1428 441 1663 441 
Q 2288 441 2617 861 
Q 2947 1281 2994 2138 
Q 2813 1869 2534 1725 
Q 2256 1581 1919 1581 
Q 1219 1581 811 2004 
Q 403 2428 403 3163 
Q 403 3881 828 4315 
Q 1253 4750 1959 4750 
Q 2769 4750 3195 4129 
Q 3622 3509 3622 2328 
Q 3622 1225 3098 567 
Q 2575 -91 1691 -91 
Q 1453 -91 1209 -44 
Q 966 3 703 97 
z
M 1959 2075 
Q 2384 2075 2632 2365 
Q 2881 2656 2881 3163 
Q 2881 3666 2632 3958 
Q 2384 4250 1959 4250 
Q 1534 4250 1286 3958 
Q 1038 3666 1038 3163 
Q 1038 2656 1286 2365 
Q 1534 2075 1959 2075 
z
" transform="scale(0.015625)"/>
       </defs>
       <use xlink:href="#DejaVuSans-30"/>
       <use xlink:href="#DejaVuSans-2e" transform="translate(63.623047 0)"/>
       <use xlink:href="#DejaVuSans-39" transform="translate(95.410156 0)"/>
      </g>
     </g>
    </g>
    <g id="text_6">
     <!-- conditional MLE of phi -->
     <g transform="translate(137.842371 245.516562) scale(0.1 -0.1)">
      <defs>
       <path id="DejaVuSans-63" d="M 3122 3366 
L 3122 2828 
Q 2878 2963 2633 3030 
Q 2388 3097 2138 3097 
Q 1578 3097 1268 2742 
Q 959 2388 959 1747 
Q 959 1106 1268 751 
Q 1578 397 2138 397 
Q 2388 397 2633 464 
Q 2878 531 3122 666 
L 3122 134 
Q 2881 22 2623 -34 
Q 2366 -91 2075 -91 
Q 1284 -91 818 406 
Q 353 903 353 1747 
Q 353 2603 823 3093 
Q 1294 3584 2113 3584 
Q 2378 3584 2631 3529 
Q 2884 3475 3122 3366 
z
" transform="scale(0.015625)"/>
       <path id="DejaVuSans-6f" d="M 1959 3097 
Q 1497 3097 1228 2736 
Q 959 2375 959 1747 
Q 959 1119 1226 758 
Q 1494 397 1959 397 
Q 2419 397 2687 759 
Q 2956 1122 2956 1747 
Q 2956 2369 2687 2733 
Q 2419 3097 1959 3097 
z
M 1959 3584 
Q 2709 3584 3137 3096 
Q 3566 2609 3566 1747 
Q 3566 888 3137 398 
Q 2709 -91 1959 -91 
Q 1206 -91 779 398 
Q 353 888 353 1747 
Q 353 2609 779 3096 
Q 1206 3584 1959 3584 
z
" transform="scale(0.015625)"/>
       <path id="DejaVuSans-6e" d="M 3513 2113 
L 3513 0 
L 2938 0 
L 2938 2094 
Q 2938 2591 2744 2837 
Q 2550 3084 2163 3084 
Q 1697 3084 1428 2787 
Q 1159 2491 1159 1978 
L 1159 0 
L 581 0 
L 581 3500 
L 1159 3500 
L 1159 2956 
Q 1366 3272 1645 3428 
Q 1925 3584 2291 3584 
Q 2894 3584 3203 3211 
Q 3513 2838 3513 2113 
z
" transform="scale(0.015625)"/>
       <path id="DejaVuSans-64" d="M 2906 2969 
L 2906 4863 
L 3481 4863 
L 3481 0 
L 2906 0 
L 2906 525 
Q 2725 213 2448 61 
Q 2172 -91 1784 -91 
Q 1150 -91 751 415 
Q 353 922 353 1747 
Q 353 2572 751 3078 
Q 1150 3584 1784 3584 
Q 2172 3584 2448 3432 
Q 2725 3281 2906 2969 
z
M 947 1747 
Q 947 1113 1208 752 
Q 1469 391 1925 391 
Q 2381 391 2643 752 
Q 2906 1113 2906 1747 
Q 2906 2381 2643 2742 
Q 2381 3103 1925 3103 
Q 1469 3103 1208 2742 
Q 947 2381 947 1747 
z
" transform="scale(0.015625)"/>
       <path id="DejaVuSans-69" d="M 603 3500 
L 1178 3500 
L 1178 0 
L 603 0 
L 603 3500 
z
M 603 4863 
L 1178 4863 
L 1178 4134 
L 603 4134 
L 603 4863 
z
" transform="scale(0.015625)"/>
       <path id="DejaVuSans-74" d="M 1172 4494 
L 1172 3500 
L 2356 3500 
L 2356 3053 
L 1172 3053 
L 1172 1153 
Q 1172 725 1289 603 
Q 1406 481 1766 481 
L 2356 481 
L 2356 0 
L 1766 0 
Q 1100 0 847 248 
Q 594 497 594 1153 
L 594 3053 
L 172 3053 
L 172 3500 
L 594 3500 
L 594 4494 
L 1172 4494 
z
" transform="scale(0.015625)"/>
       <path id="DejaVuSans-61" d="M 2194 1759 
Q 1497 1759 1228 1600 
Q 959 1441 959 1056 
Q 959 750 1161 570 
Q 1363 391 1709 391 
Q 2188 391 2477 730 
Q 2766 1069 2766 1631 
L 2766 1759 
L 2194 1759 
z
M 3341 1997 
L 3341 0 
L 2766 0 
L 2766 531 
Q 2569 213 2275 61 
Q 1981 -91 1556 -91 
Q 1019 -91 701 211 
Q 384 513 384 1019 
Q 384 1609 779 1909 
Q 1175 2209 1959 2209 
L 2766 2209 
L 2766 2266 
Q 2766 2663 2505 2880 
Q 2244 3097 1772 3097 
Q 1472 3097 1187 3025 
Q 903 2953 641 2809 
L 641 3341 
Q 956 3463 1253 3523 
Q 1550 3584 1831 3584 
Q 2591 3584 2966 3190 
Q 3341 2797 3341 1997 
z
" transform="scale(0.015625)"/>
       <path id="DejaVuSans-6c" d="M 603 4863 
L 1178 4863 
L 1178 0 
L 603 0 
L 603 4863 
z
" transform="scale(0.015625)"/>
       <path id="DejaVuSans-20" transform="scale(0.015625)"/>
       <path id="DejaVuSans-4d" d="M 628 4666 
L 1569 4666 
L 2759 1491 
L 3956 4666 
L 4897 4666 
L 4897 0 
L 4281 0 
L 4281 4097 
L 3078 897 
L 2444 897 
L 1241 4097 
L 1241 0 
L 628 0 
L 628 4666 
z
" transform="scale(0.015625)"/>
       <path id="DejaVuSans-4c" d="M 628 4666 
L 1259 4666 
L 1259 531 
L 3531 531 
L 3531 0 
L 628 0 
L 628 4666 
z
" transform="scale(0.015625)"/>
       <path id="DejaVuSans-45" d="M 628 4666 
L 3578 4666 
L 3578 4134 
L 1259 4134 
L 1259 2753 
L 3481 2753 
L 3481 2222 
L 1259 2222 
L 1259 531 
L 3634 531 
L 3634 0 
L 628 0 
L 628 4666 
z
" transform="scale(0.015625)"/>
       <path id="DejaVuSans-66" d="M 2375 4863 
L 2375 4384 
L 1825 4384 
Q 1516 4384 1395 4259 
Q 1275 4134 1275 3809 
L 1275 3500 
L 2222 3500 
L 2222 3053 
L 1275 3053 
L 1275 0 
L 697 0 
L 697 3053 
L 147 3053 
L 147 3500 
L 697 3500 
L 697 3744 
Q 697 4328 969 4595 
Q 1241 4863 1831 4863 
L 2375 4863 
z
" transform="scale(0.015625)"/>
       <path id="DejaVuSans-70" d="M 1159 525 
L 1159 -1331 
L 581 -1331 
L 581 3500 
L 1159 3500 
L 1159 2969 
Q 1341 3281 1617 3432 
Q 1894 3584 2278 3584 
Q 2916 3584 3314 3078 
Q 3713 2572 3713 1747 
Q 3713 922 3314 415 
Q 2916 -91 2278 -91 
Q 1894 -91 1617 61 
Q 1341 213 1159 525 
z
M 3116 1747 
Q 3116 2381 2855 2742 
Q 2594 3103 2138 3103 
Q 1681 3103 1420 2742 
Q 1159 2381 1159 1747 
Q 1159 1113 1420 752 
Q 1681 391 2138 391 
Q 2594 391 2855 752 
Q 3116 1113 3116 1747 
z
" transform="scale(0.015625)"/>
       <path id="DejaVuSans-68" d="M 3513 2113 
L 3513 0 
L 2938 0 
L 2938 2094 
Q 2938 2591 2744 2837 
Q 2550 3084 2163 3084 
Q 1697 3084 1428 2787 
Q 1159 2491 1159 1978 
L 1159 0 
L 581 0 
L 581 4863 
L 1159 4863 
L 1159 2956 
Q 1366 3272 1645 3428 
Q 1925 3584 2291 3584 
Q 2894 3584 3203 3211 
Q 3513 2838 3513 2113 
z
" transform="scale(0.015625)"/>
      </defs>
      <use xlink:href="#DejaVuSans-63"/>
      <use xlink:href="#DejaVuSans-6f" transform="translate(54.980469 0)"/>
      <use xlink:href="#DejaVuSans-6e" transform="translate(116.162109 0)"/>
      <use xlink:href="#DejaVuSans-64" transform="translate(179.541016 0)"/>
      <use xlink:href="#DejaVuSans-69" transform="translate(243.017578 0)"/>
      <use xlink:href="#DejaVuSans-74" transform="translate(270.800781 0)"/>
      <use xlink:href="#DejaVuSans-69" transform="translate(310.009766 0)"/>
      <use xlink:href="#DejaVuSans-6f" transform="translate(337.792969 0)"/>
      <use xlink:href="#DejaVuSans-6e" transform="translate(398.974609 0)"/>
      <use xlink:href="#DejaVuSans-61" transform="translate(462.353516 0)"/>
      <use xlink:href="#DejaVuSans-6c" transform="translate(523.632812 0)"/>
      <use xlink:href="#DejaVuSans-20" transform="translate(551.416016 0)"/>
      <use xlink:href="#DejaVuSans-4d" transform="translate(583.203125 0)"/>
      <use xlink:href="#DejaVuSans-4c" transform="translate(669.482422 0)"/>
      <use xlink:href="#DejaVuSans-45" transform="translate(725.195312 0)"/>
      <use xlink:href="#DejaVuSans-20" transform="translate(788.378906 0)"/>
      <use xlink:href="#DejaVuSans-6f" transform="translate(820.166016 0)"/>
      <use xlink:href="#DejaVuSans-66" transform="translate(881.347656 0)"/>
      <use xlink:href="#DejaVuSans-20" transform="translate(916.552734 0)"/>
      <use xlink:href="#DejaVuSans-70" transform="translate(948.339844 0)"/>
      <use xlink:href="#DejaVuSans-68" transform="translate(1011.816406 0)"/>
      <use xlink:href="#DejaVuSans-69" transform="translate(1075.195312 0)"/>
     </g>
    </g>
   </g>
   <g id="matplotlib.axis_2">
    <g id="ytick_1">
     <g id="line2d_6">
      <path d="M 50.87 217.24 
L 335.113179 217.24 
" clip-path="url(#pe9b23e73bb)" style="fill: none; stroke: #d8dee8; stroke-width: 0.8; stroke-linecap: square"/>
     </g>
     <g id="line2d_7">
      <defs>
       <path id="mdad1e0bb24" d="M 0 0 
L -3.5 0 
" style="stroke: #000000; stroke-width: 0.8"/>
      </defs>
      <g>
       <use xlink:href="#mdad1e0bb24" x="50.87" y="217.24" style="stroke: #000000; stroke-width: 0.8"/>
      </g>
     </g>
     <g id="text_7">
      <!-- 0 -->
      <g transform="translate(37.5075 221.039219) scale(0.1 -0.1)">
       <use xlink:href="#DejaVuSans-30"/>
      </g>
     </g>
    </g>
    <g id="ytick_2">
     <g id="line2d_8">
      <path d="M 50.87 180.240972 
L 335.113179 180.240972 
" clip-path="url(#pe9b23e73bb)" style="fill: none; stroke: #d8dee8; stroke-width: 0.8; stroke-linecap: square"/>
     </g>
     <g id="line2d_9">
      <g>
       <use xlink:href="#mdad1e0bb24" x="50.87" y="180.240972" style="stroke: #000000; stroke-width: 0.8"/>
      </g>
     </g>
     <g id="text_8">
      <!-- 20 -->
      <g transform="translate(31.145 184.040191) scale(0.1 -0.1)">
       <defs>
        <path id="DejaVuSans-32" d="M 1228 531 
L 3431 531 
L 3431 0 
L 469 0 
L 469 531 
Q 828 903 1448 1529 
Q 2069 2156 2228 2338 
Q 2531 2678 2651 2914 
Q 2772 3150 2772 3378 
Q 2772 3750 2511 3984 
Q 2250 4219 1831 4219 
Q 1534 4219 1204 4116 
Q 875 4013 500 3803 
L 500 4441 
Q 881 4594 1212 4672 
Q 1544 4750 1819 4750 
Q 2544 4750 2975 4387 
Q 3406 4025 3406 3419 
Q 3406 3131 3298 2873 
Q 3191 2616 2906 2266 
Q 2828 2175 2409 1742 
Q 1991 1309 1228 531 
z
" transform="scale(0.015625)"/>
       </defs>
       <use xlink:href="#DejaVuSans-32"/>
       <use xlink:href="#DejaVuSans-30" transform="translate(63.623047 0)"/>
      </g>
     </g>
    </g>
    <g id="ytick_3">
     <g id="line2d_10">
      <path d="M 50.87 143.241944 
L 335.113179 143.241944 
" clip-path="url(#pe9b23e73bb)" style="fill: none; stroke: #d8dee8; stroke-width: 0.8; stroke-linecap: square"/>
     </g>
     <g id="line2d_11">
      <g>
       <use xlink:href="#mdad1e0bb24" x="50.87" y="143.241944" style="stroke: #000000; stroke-width: 0.8"/>
      </g>
     </g>
     <g id="text_9">
      <!-- 40 -->
      <g transform="translate(31.145 147.041162) scale(0.1 -0.1)">
       <defs>
        <path id="DejaVuSans-34" d="M 2419 4116 
L 825 1625 
L 2419 1625 
L 2419 4116 
z
M 2253 4666 
L 3047 4666 
L 3047 1625 
L 3713 1625 
L 3713 1100 
L 3047 1100 
L 3047 0 
L 2419 0 
L 2419 1100 
L 313 1100 
L 313 1709 
L 2253 4666 
z
" transform="scale(0.015625)"/>
       </defs>
       <use xlink:href="#DejaVuSans-34"/>
       <use xlink:href="#DejaVuSans-30" transform="translate(63.623047 0)"/>
      </g>
     </g>
    </g>
    <g id="ytick_4">
     <g id="line2d_12">
      <path d="M 50.87 106.242915 
L 335.113179 106.242915 
" clip-path="url(#pe9b23e73bb)" style="fill: none; stroke: #d8dee8; stroke-width: 0.8; stroke-linecap: square"/>
     </g>
     <g id="line2d_13">
      <g>
       <use xlink:href="#mdad1e0bb24" x="50.87" y="106.242915" style="stroke: #000000; stroke-width: 0.8"/>
      </g>
     </g>
     <g id="text_10">
      <!-- 60 -->
      <g transform="translate(31.145 110.042134) scale(0.1 -0.1)">
       <use xlink:href="#DejaVuSans-36"/>
       <use xlink:href="#DejaVuSans-30" transform="translate(63.623047 0)"/>
      </g>
     </g>
    </g>
    <g id="ytick_5">
     <g id="line2d_14">
      <path d="M 50.87 69.243887 
L 335.113179 69.243887 
" clip-path="url(#pe9b23e73bb)" style="fill: none; stroke: #d8dee8; stroke-width: 0.8; stroke-linecap: square"/>
     </g>
     <g id="line2d_15">
      <g>
       <use xlink:href="#mdad1e0bb24" x="50.87" y="69.243887" style="stroke: #000000; stroke-width: 0.8"/>
      </g>
     </g>
     <g id="text_11">
      <!-- 80 -->
      <g transform="translate(31.145 73.043106) scale(0.1 -0.1)">
       <use xlink:href="#DejaVuSans-38"/>
       <use xlink:href="#DejaVuSans-30" transform="translate(63.623047 0)"/>
      </g>
     </g>
    </g>
    <g id="ytick_6">
     <g id="line2d_16">
      <path d="M 50.87 32.244859 
L 335.113179 32.244859 
" clip-path="url(#pe9b23e73bb)" style="fill: none; stroke: #d8dee8; stroke-width: 0.8; stroke-linecap: square"/>
     </g>
     <g id="line2d_17">
      <g>
       <use xlink:href="#mdad1e0bb24" x="50.87" y="32.244859" style="stroke: #000000; stroke-width: 0.8"/>
      </g>
     </g>
     <g id="text_12">
      <!-- 100 -->
      <g transform="translate(24.7825 36.044078) scale(0.1 -0.1)">
       <defs>
        <path id="DejaVuSans-31" d="M 794 531 
L 1825 531 
L 1825 4091 
L 703 3866 
L 703 4441 
L 1819 4666 
L 2450 4666 
L 2450 531 
L 3481 531 
L 3481 0 
L 794 0 
L 794 531 
z
" transform="scale(0.015625)"/>
       </defs>
       <use xlink:href="#DejaVuSans-31"/>
       <use xlink:href="#DejaVuSans-30" transform="translate(63.623047 0)"/>
       <use xlink:href="#DejaVuSans-30" transform="translate(127.246094 0)"/>
      </g>
     </g>
    </g>
    <g id="text_13">
     <!-- frequency -->
     <g transform="translate(18.702813 147.136562) rotate(-90) scale(0.1 -0.1)">
      <defs>
       <path id="DejaVuSans-72" d="M 2631 2963 
Q 2534 3019 2420 3045 
Q 2306 3072 2169 3072 
Q 1681 3072 1420 2755 
Q 1159 2438 1159 1844 
L 1159 0 
L 581 0 
L 581 3500 
L 1159 3500 
L 1159 2956 
Q 1341 3275 1631 3429 
Q 1922 3584 2338 3584 
Q 2397 3584 2469 3576 
Q 2541 3569 2628 3553 
L 2631 2963 
z
" transform="scale(0.015625)"/>
       <path id="DejaVuSans-65" d="M 3597 1894 
L 3597 1613 
L 953 1613 
Q 991 1019 1311 708 
Q 1631 397 2203 397 
Q 2534 397 2845 478 
Q 3156 559 3463 722 
L 3463 178 
Q 3153 47 2828 -22 
Q 2503 -91 2169 -91 
Q 1331 -91 842 396 
Q 353 884 353 1716 
Q 353 2575 817 3079 
Q 1281 3584 2069 3584 
Q 2775 3584 3186 3129 
Q 3597 2675 3597 1894 
z
M 3022 2063 
Q 3016 2534 2758 2815 
Q 2500 3097 2075 3097 
Q 1594 3097 1305 2825 
Q 1016 2553 972 2059 
L 3022 2063 
z
" transform="scale(0.015625)"/>
       <path id="DejaVuSans-71" d="M 947 1747 
Q 947 1113 1208 752 
Q 1469 391 1925 391 
Q 2381 391 2643 752 
Q 2906 1113 2906 1747 
Q 2906 2381 2643 2742 
Q 2381 3103 1925 3103 
Q 1469 3103 1208 2742 
Q 947 2381 947 1747 
z
M 2906 525 
Q 2725 213 2448 61 
Q 2172 -91 1784 -91 
Q 1150 -91 751 415 
Q 353 922 353 1747 
Q 353 2572 751 3078 
Q 1150 3584 1784 3584 
Q 2172 3584 2448 3432 
Q 2725 3281 2906 2969 
L 2906 3500 
L 3481 3500 
L 3481 -1331 
L 2906 -1331 
L 2906 525 
z
" transform="scale(0.015625)"/>
       <path id="DejaVuSans-75" d="M 544 1381 
L 544 3500 
L 1119 3500 
L 1119 1403 
Q 1119 906 1312 657 
Q 1506 409 1894 409 
Q 2359 409 2629 706 
Q 2900 1003 2900 1516 
L 2900 3500 
L 3475 3500 
L 3475 0 
L 2900 0 
L 2900 538 
Q 2691 219 2414 64 
Q 2138 -91 1772 -91 
Q 1169 -91 856 284 
Q 544 659 544 1381 
z
M 1991 3584 
L 1991 3584 
z
" transform="scale(0.015625)"/>
       <path id="DejaVuSans-79" d="M 2059 -325 
Q 1816 -950 1584 -1140 
Q 1353 -1331 966 -1331 
L 506 -1331 
L 506 -850 
L 844 -850 
Q 1081 -850 1212 -737 
Q 1344 -625 1503 -206 
L 1606 56 
L 191 3500 
L 800 3500 
L 1894 763 
L 2988 3500 
L 3597 3500 
L 2059 -325 
z
" transform="scale(0.015625)"/>
      </defs>
      <use xlink:href="#DejaVuSans-66"/>
      <use xlink:href="#DejaVuSans-72" transform="translate(35.205078 0)"/>
      <use xlink:href="#DejaVuSans-65" transform="translate(74.068359 0)"/>
      <use xlink:href="#DejaVuSans-71" transform="translate(135.591797 0)"/>
      <use xlink:href="#DejaVuSans-75" transform="translate(199.068359 0)"/>
      <use xlink:href="#DejaVuSans-65" transform="translate(262.447266 0)"/>
      <use xlink:href="#DejaVuSans-6e" transform="translate(323.970703 0)"/>
      <use xlink:href="#DejaVuSans-63" transform="translate(387.349609 0)"/>
      <use xlink:href="#DejaVuSans-79" transform="translate(442.330078 0)"/>
     </g>
    </g>
   </g>
   <g id="line2d_18">
    <path d="M 241.706534 217.24 
L 241.706534 26.88 
" clip-path="url(#pe9b23e73bb)" style="fill: none; stroke: #d95f02; stroke-width: 1.8; stroke-linecap: square"/>
   </g>
   <g id="line2d_19">
    <path d="M 222.643273 217.24 
L 222.643273 26.88 
" clip-path="url(#pe9b23e73bb)" style="fill: none; stroke-dasharray: 5.18,2.24; stroke-dashoffset: 0; stroke: #263142; stroke-width: 1.4"/>
   </g>
   <g id="patch_39">
    <path d="M 50.87 217.24 
L 50.87 26.88 
" style="fill: none; stroke: #000000; stroke-width: 0.8; stroke-linejoin: miter; stroke-linecap: square"/>
   </g>
   <g id="patch_40">
    <path d="M 335.113179 217.24 
L 335.113179 26.88 
" style="fill: none; stroke: #000000; stroke-width: 0.8; stroke-linejoin: miter; stroke-linecap: square"/>
   </g>
   <g id="patch_41">
    <path d="M 50.87 217.24 
L 335.113179 217.24 
" style="fill: none; stroke: #000000; stroke-width: 0.8; stroke-linejoin: miter; stroke-linecap: square"/>
   </g>
   <g id="patch_42">
    <path d="M 50.87 26.88 
L 335.113179 26.88 
" style="fill: none; stroke: #000000; stroke-width: 0.8; stroke-linejoin: miter; stroke-linecap: square"/>
   </g>
   <g id="text_14">
    <!-- phi=0.8, T=100 -->
    <g transform="translate(145.184715 20.88) scale(0.12 -0.12)">
     <defs>
      <path id="DejaVuSans-3d" d="M 678 2906 
L 4684 2906 
L 4684 2381 
L 678 2381 
L 678 2906 
z
M 678 1631 
L 4684 1631 
L 4684 1100 
L 678 1100 
L 678 1631 
z
" transform="scale(0.015625)"/>
      <path id="DejaVuSans-2c" d="M 750 794 
L 1409 794 
L 1409 256 
L 897 -744 
L 494 -744 
L 750 256 
L 750 794 
z
" transform="scale(0.015625)"/>
      <path id="DejaVuSans-54" d="M -19 4666 
L 3928 4666 
L 3928 4134 
L 2272 4134 
L 2272 0 
L 1638 0 
L 1638 4134 
L -19 4134 
L -19 4666 
z
" transform="scale(0.015625)"/>
     </defs>
     <use xlink:href="#DejaVuSans-70"/>
     <use xlink:href="#DejaVuSans-68" transform="translate(63.476562 0)"/>
     <use xlink:href="#DejaVuSans-69" transform="translate(126.855469 0)"/>
     <use xlink:href="#DejaVuSans-3d" transform="translate(154.638672 0)"/>
     <use xlink:href="#DejaVuSans-30" transform="translate(238.427734 0)"/>
     <use xlink:href="#DejaVuSans-2e" transform="translate(302.050781 0)"/>
     <use xlink:href="#DejaVuSans-38" transform="translate(333.837891 0)"/>
     <use xlink:href="#DejaVuSans-2c" transform="translate(397.460938 0)"/>
     <use xlink:href="#DejaVuSans-20" transform="translate(429.248047 0)"/>
     <use xlink:href="#DejaVuSans-54" transform="translate(461.035156 0)"/>
     <use xlink:href="#DejaVuSans-3d" transform="translate(522.119141 0)"/>
     <use xlink:href="#DejaVuSans-31" transform="translate(605.908203 0)"/>
     <use xlink:href="#DejaVuSans-30" transform="translate(669.53125 0)"/>
     <use xlink:href="#DejaVuSans-30" transform="translate(733.154297 0)"/>
    </g>
   </g>
  </g>
  <g id="axes_2">
   <g id="patch_43">
    <path d="M 352.956821 217.24 
L 637.2 217.24 
L 637.2 26.88 
L 352.956821 26.88 
z
" style="fill: #ffffff"/>
   </g>
   <g id="patch_44">
    <path d="M 365.876965 217.24 
L 373.054823 217.24 
L 373.054823 215.390049 
L 365.876965 215.390049 
z
" clip-path="url(#pa6a6567b49)" style="fill: #6aaed6; stroke: #ffffff; stroke-linejoin: miter"/>
   </g>
   <g id="patch_45">
    <path d="M 373.054823 217.24 
L 380.232681 217.24 
L 380.232681 215.390049 
L 373.054823 215.390049 
z
" clip-path="url(#pa6a6567b49)" style="fill: #6aaed6; stroke: #ffffff; stroke-linejoin: miter"/>
   </g>
   <g id="patch_46">
    <path d="M 380.232681 217.24 
L 387.410539 217.24 
L 387.410539 217.24 
L 380.232681 217.24 
z
" clip-path="url(#pa6a6567b49)" style="fill: #6aaed6; stroke: #ffffff; stroke-linejoin: miter"/>
   </g>
   <g id="patch_47">
    <path d="M 387.410539 217.24 
L 394.588398 217.24 
L 394.588398 215.390049 
L 387.410539 215.390049 
z
" clip-path="url(#pa6a6567b49)" style="fill: #6aaed6; stroke: #ffffff; stroke-linejoin: miter"/>
   </g>
   <g id="patch_48">
    <path d="M 394.588398 217.24 
L 401.766256 217.24 
L 401.766256 217.24 
L 394.588398 217.24 
z
" clip-path="url(#pa6a6567b49)" style="fill: #6aaed6; stroke: #ffffff; stroke-linejoin: miter"/>
   </g>
   <g id="patch_49">
    <path d="M 401.766256 217.24 
L 408.944114 217.24 
L 408.944114 213.540097 
L 401.766256 213.540097 
z
" clip-path="url(#pa6a6567b49)" style="fill: #6aaed6; stroke: #ffffff; stroke-linejoin: miter"/>
   </g>
   <g id="patch_50">
    <path d="M 408.944114 217.24 
L 416.121972 217.24 
L 416.121972 215.390049 
L 408.944114 215.390049 
z
" clip-path="url(#pa6a6567b49)" style="fill: #6aaed6; stroke: #ffffff; stroke-linejoin: miter"/>
   </g>
   <g id="patch_51">
    <path d="M 416.121972 217.24 
L 423.29983 217.24 
L 423.29983 211.690146 
L 416.121972 211.690146 
z
" clip-path="url(#pa6a6567b49)" style="fill: #6aaed6; stroke: #ffffff; stroke-linejoin: miter"/>
   </g>
   <g id="patch_52">
    <path d="M 423.29983 217.24 
L 430.477688 217.24 
L 430.477688 206.140292 
L 423.29983 206.140292 
z
" clip-path="url(#pa6a6567b49)" style="fill: #6aaed6; stroke: #ffffff; stroke-linejoin: miter"/>
   </g>
   <g id="patch_53">
    <path d="M 430.477688 217.24 
L 437.655546 217.24 
L 437.655546 211.690146 
L 430.477688 211.690146 
z
" clip-path="url(#pa6a6567b49)" style="fill: #6aaed6; stroke: #ffffff; stroke-linejoin: miter"/>
   </g>
   <g id="patch_54">
    <path d="M 437.655546 217.24 
L 444.833404 217.24 
L 444.833404 206.140292 
L 437.655546 206.140292 
z
" clip-path="url(#pa6a6567b49)" style="fill: #6aaed6; stroke: #ffffff; stroke-linejoin: miter"/>
   </g>
   <g id="patch_55">
    <path d="M 444.833404 217.24 
L 452.011262 217.24 
L 452.011262 196.890534 
L 444.833404 196.890534 
z
" clip-path="url(#pa6a6567b49)" style="fill: #6aaed6; stroke: #ffffff; stroke-linejoin: miter"/>
   </g>
   <g id="patch_56">
    <path d="M 452.011262 217.24 
L 459.18912 217.24 
L 459.18912 185.790826 
L 452.011262 185.790826 
z
" clip-path="url(#pa6a6567b49)" style="fill: #6aaed6; stroke: #ffffff; stroke-linejoin: miter"/>
   </g>
   <g id="patch_57">
    <path d="M 459.18912 217.24 
L 466.366978 217.24 
L 466.366978 176.541069 
L 459.18912 176.541069 
z
" clip-path="url(#pa6a6567b49)" style="fill: #6aaed6; stroke: #ffffff; stroke-linejoin: miter"/>
   </g>
   <g id="patch_58">
    <path d="M 466.366978 217.24 
L 473.544836 217.24 
L 473.544836 170.991215 
L 466.366978 170.991215 
z
" clip-path="url(#pa6a6567b49)" style="fill: #6aaed6; stroke: #ffffff; stroke-linejoin: miter"/>
   </g>
   <g id="patch_59">
    <path d="M 473.544836 217.24 
L 480.722694 217.24 
L 480.722694 174.691118 
L 473.544836 174.691118 
z
" clip-path="url(#pa6a6567b49)" style="fill: #6aaed6; stroke: #ffffff; stroke-linejoin: miter"/>
   </g>
   <g id="patch_60">
    <path d="M 480.722694 217.24 
L 487.900552 217.24 
L 487.900552 159.891506 
L 480.722694 159.891506 
z
" clip-path="url(#pa6a6567b49)" style="fill: #6aaed6; stroke: #ffffff; stroke-linejoin: miter"/>
   </g>
   <g id="patch_61">
    <path d="M 487.900552 217.24 
L 495.07841 217.24 
L 495.07841 126.592381 
L 487.900552 126.592381 
z
" clip-path="url(#pa6a6567b49)" style="fill: #6aaed6; stroke: #ffffff; stroke-linejoin: miter"/>
   </g>
   <g id="patch_62">
    <path d="M 495.07841 217.24 
L 502.256268 217.24 
L 502.256268 106.242915 
L 495.07841 106.242915 
z
" clip-path="url(#pa6a6567b49)" style="fill: #6aaed6; stroke: #ffffff; stroke-linejoin: miter"/>
   </g>
   <g id="patch_63">
    <path d="M 502.256268 217.24 
L 509.434127 217.24 
L 509.434127 111.79277 
L 502.256268 111.79277 
z
" clip-path="url(#pa6a6567b49)" style="fill: #6aaed6; stroke: #ffffff; stroke-linejoin: miter"/>
   </g>
   <g id="patch_64">
    <path d="M 509.434127 217.24 
L 516.611985 217.24 
L 516.611985 76.643693 
L 509.434127 76.643693 
z
" clip-path="url(#pa6a6567b49)" style="fill: #6aaed6; stroke: #ffffff; stroke-linejoin: miter"/>
   </g>
   <g id="patch_65">
    <path d="M 516.611985 217.24 
L 523.789843 217.24 
L 523.789843 71.093839 
L 516.611985 71.093839 
z
" clip-path="url(#pa6a6567b49)" style="fill: #6aaed6; stroke: #ffffff; stroke-linejoin: miter"/>
   </g>
   <g id="patch_66">
    <path d="M 523.789843 217.24 
L 530.967701 217.24 
L 530.967701 78.493644 
L 523.789843 78.493644 
z
" clip-path="url(#pa6a6567b49)" style="fill: #6aaed6; stroke: #ffffff; stroke-linejoin: miter"/>
   </g>
   <g id="patch_67">
    <path d="M 530.967701 217.24 
L 538.145559 217.24 
L 538.145559 85.89345 
L 530.967701 85.89345 
z
" clip-path="url(#pa6a6567b49)" style="fill: #6aaed6; stroke: #ffffff; stroke-linejoin: miter"/>
   </g>
   <g id="patch_68">
    <path d="M 538.145559 217.24 
L 545.323417 217.24 
L 545.323417 93.293256 
L 538.145559 93.293256 
z
" clip-path="url(#pa6a6567b49)" style="fill: #6aaed6; stroke: #ffffff; stroke-linejoin: miter"/>
   </g>
   <g id="patch_69">
    <path d="M 545.323417 217.24 
L 552.501275 217.24 
L 552.501275 67.393936 
L 545.323417 67.393936 
z
" clip-path="url(#pa6a6567b49)" style="fill: #6aaed6; stroke: #ffffff; stroke-linejoin: miter"/>
   </g>
   <g id="patch_70">
    <path d="M 552.501275 217.24 
L 559.679133 217.24 
L 559.679133 100.693061 
L 552.501275 100.693061 
z
" clip-path="url(#pa6a6567b49)" style="fill: #6aaed6; stroke: #ffffff; stroke-linejoin: miter"/>
   </g>
   <g id="patch_71">
    <path d="M 559.679133 217.24 
L 566.856991 217.24 
L 566.856991 133.992187 
L 559.679133 133.992187 
z
" clip-path="url(#pa6a6567b49)" style="fill: #6aaed6; stroke: #ffffff; stroke-linejoin: miter"/>
   </g>
   <g id="patch_72">
    <path d="M 566.856991 217.24 
L 574.034849 217.24 
L 574.034849 148.791798 
L 566.856991 148.791798 
z
" clip-path="url(#pa6a6567b49)" style="fill: #6aaed6; stroke: #ffffff; stroke-linejoin: miter"/>
   </g>
   <g id="patch_73">
    <path d="M 574.034849 217.24 
L 581.212707 217.24 
L 581.212707 165.441361 
L 574.034849 165.441361 
z
" clip-path="url(#pa6a6567b49)" style="fill: #6aaed6; stroke: #ffffff; stroke-linejoin: miter"/>
   </g>
   <g id="patch_74">
    <path d="M 581.212707 217.24 
L 588.390565 217.24 
L 588.390565 163.591409 
L 581.212707 163.591409 
z
" clip-path="url(#pa6a6567b49)" style="fill: #6aaed6; stroke: #ffffff; stroke-linejoin: miter"/>
   </g>
   <g id="patch_75">
    <path d="M 588.390565 217.24 
L 595.568423 217.24 
L 595.568423 189.490729 
L 588.390565 189.490729 
z
" clip-path="url(#pa6a6567b49)" style="fill: #6aaed6; stroke: #ffffff; stroke-linejoin: miter"/>
   </g>
   <g id="patch_76">
    <path d="M 595.568423 217.24 
L 602.746281 217.24 
L 602.746281 196.890534 
L 595.568423 196.890534 
z
" clip-path="url(#pa6a6567b49)" style="fill: #6aaed6; stroke: #ffffff; stroke-linejoin: miter"/>
   </g>
   <g id="patch_77">
    <path d="M 602.746281 217.24 
L 609.924139 217.24 
L 609.924139 213.540097 
L 602.746281 213.540097 
z
" clip-path="url(#pa6a6567b49)" style="fill: #6aaed6; stroke: #ffffff; stroke-linejoin: miter"/>
   </g>
   <g id="patch_78">
    <path d="M 609.924139 217.24 
L 617.101997 217.24 
L 617.101997 215.390049 
L 609.924139 215.390049 
z
" clip-path="url(#pa6a6567b49)" style="fill: #6aaed6; stroke: #ffffff; stroke-linejoin: miter"/>
   </g>
   <g id="patch_79">
    <path d="M 617.101997 217.24 
L 624.279855 217.24 
L 624.279855 215.390049 
L 617.101997 215.390049 
z
" clip-path="url(#pa6a6567b49)" style="fill: #6aaed6; stroke: #ffffff; stroke-linejoin: miter"/>
   </g>
   <g id="matplotlib.axis_3">
    <g id="xtick_6">
     <g id="line2d_20">
      <g>
       <use xlink:href="#m2d3f18a802" x="357.970407" y="217.24" style="stroke: #000000; stroke-width: 0.8"/>
      </g>
     </g>
     <g id="text_15">
      <!-- 0.65 -->
      <g transform="translate(346.837594 231.838437) scale(0.1 -0.1)">
       <use xlink:href="#DejaVuSans-30"/>
       <use xlink:href="#DejaVuSans-2e" transform="translate(63.623047 0)"/>
       <use xlink:href="#DejaVuSans-36" transform="translate(95.410156 0)"/>
       <use xlink:href="#DejaVuSans-35" transform="translate(159.033203 0)"/>
      </g>
     </g>
    </g>
    <g id="xtick_7">
     <g id="line2d_21">
      <g>
       <use xlink:href="#m2d3f18a802" x="417.57222" y="217.24" style="stroke: #000000; stroke-width: 0.8"/>
      </g>
     </g>
     <g id="text_16">
      <!-- 0.70 -->
      <g transform="translate(406.439407 231.838437) scale(0.1 -0.1)">
       <use xlink:href="#DejaVuSans-30"/>
       <use xlink:href="#DejaVuSans-2e" transform="translate(63.623047 0)"/>
       <use xlink:href="#DejaVuSans-37" transform="translate(95.410156 0)"/>
       <use xlink:href="#DejaVuSans-30" transform="translate(159.033203 0)"/>
      </g>
     </g>
    </g>
    <g id="xtick_8">
     <g id="line2d_22">
      <g>
       <use xlink:href="#m2d3f18a802" x="477.174032" y="217.24" style="stroke: #000000; stroke-width: 0.8"/>
      </g>
     </g>
     <g id="text_17">
      <!-- 0.75 -->
      <g transform="translate(466.04122 231.838437) scale(0.1 -0.1)">
       <use xlink:href="#DejaVuSans-30"/>
       <use xlink:href="#DejaVuSans-2e" transform="translate(63.623047 0)"/>
       <use xlink:href="#DejaVuSans-37" transform="translate(95.410156 0)"/>
       <use xlink:href="#DejaVuSans-35" transform="translate(159.033203 0)"/>
      </g>
     </g>
    </g>
    <g id="xtick_9">
     <g id="line2d_23">
      <g>
       <use xlink:href="#m2d3f18a802" x="536.775845" y="217.24" style="stroke: #000000; stroke-width: 0.8"/>
      </g>
     </g>
     <g id="text_18">
      <!-- 0.80 -->
      <g transform="translate(525.643033 231.838437) scale(0.1 -0.1)">
       <use xlink:href="#DejaVuSans-30"/>
       <use xlink:href="#DejaVuSans-2e" transform="translate(63.623047 0)"/>
       <use xlink:href="#DejaVuSans-38" transform="translate(95.410156 0)"/>
       <use xlink:href="#DejaVuSans-30" transform="translate(159.033203 0)"/>
      </g>
     </g>
    </g>
    <g id="xtick_10">
     <g id="line2d_24">
      <g>
       <use xlink:href="#m2d3f18a802" x="596.377658" y="217.24" style="stroke: #000000; stroke-width: 0.8"/>
      </g>
     </g>
     <g id="text_19">
      <!-- 0.85 -->
      <g transform="translate(585.244846 231.838437) scale(0.1 -0.1)">
       <use xlink:href="#DejaVuSans-30"/>
       <use xlink:href="#DejaVuSans-2e" transform="translate(63.623047 0)"/>
       <use xlink:href="#DejaVuSans-38" transform="translate(95.410156 0)"/>
       <use xlink:href="#DejaVuSans-35" transform="translate(159.033203 0)"/>
      </g>
     </g>
    </g>
    <g id="text_20">
     <!-- conditional MLE of phi -->
     <g transform="translate(439.929192 245.516562) scale(0.1 -0.1)">
      <use xlink:href="#DejaVuSans-63"/>
      <use xlink:href="#DejaVuSans-6f" transform="translate(54.980469 0)"/>
      <use xlink:href="#DejaVuSans-6e" transform="translate(116.162109 0)"/>
      <use xlink:href="#DejaVuSans-64" transform="translate(179.541016 0)"/>
      <use xlink:href="#DejaVuSans-69" transform="translate(243.017578 0)"/>
      <use xlink:href="#DejaVuSans-74" transform="translate(270.800781 0)"/>
      <use xlink:href="#DejaVuSans-69" transform="translate(310.009766 0)"/>
      <use xlink:href="#DejaVuSans-6f" transform="translate(337.792969 0)"/>
      <use xlink:href="#DejaVuSans-6e" transform="translate(398.974609 0)"/>
      <use xlink:href="#DejaVuSans-61" transform="translate(462.353516 0)"/>
      <use xlink:href="#DejaVuSans-6c" transform="translate(523.632812 0)"/>
      <use xlink:href="#DejaVuSans-20" transform="translate(551.416016 0)"/>
      <use xlink:href="#DejaVuSans-4d" transform="translate(583.203125 0)"/>
      <use xlink:href="#DejaVuSans-4c" transform="translate(669.482422 0)"/>
      <use xlink:href="#DejaVuSans-45" transform="translate(725.195312 0)"/>
      <use xlink:href="#DejaVuSans-20" transform="translate(788.378906 0)"/>
      <use xlink:href="#DejaVuSans-6f" transform="translate(820.166016 0)"/>
      <use xlink:href="#DejaVuSans-66" transform="translate(881.347656 0)"/>
      <use xlink:href="#DejaVuSans-20" transform="translate(916.552734 0)"/>
      <use xlink:href="#DejaVuSans-70" transform="translate(948.339844 0)"/>
      <use xlink:href="#DejaVuSans-68" transform="translate(1011.816406 0)"/>
      <use xlink:href="#DejaVuSans-69" transform="translate(1075.195312 0)"/>
     </g>
    </g>
   </g>
   <g id="matplotlib.axis_4">
    <g id="ytick_7">
     <g id="line2d_25">
      <path d="M 352.956821 217.24 
L 637.2 217.24 
" clip-path="url(#pa6a6567b49)" style="fill: none; stroke: #d8dee8; stroke-width: 0.8; stroke-linecap: square"/>
     </g>
     <g id="line2d_26">
      <g>
       <use xlink:href="#mdad1e0bb24" x="352.956821" y="217.24" style="stroke: #000000; stroke-width: 0.8"/>
      </g>
     </g>
    </g>
    <g id="ytick_8">
     <g id="line2d_27">
      <path d="M 352.956821 180.240972 
L 637.2 180.240972 
" clip-path="url(#pa6a6567b49)" style="fill: none; stroke: #d8dee8; stroke-width: 0.8; stroke-linecap: square"/>
     </g>
     <g id="line2d_28">
      <g>
       <use xlink:href="#mdad1e0bb24" x="352.956821" y="180.240972" style="stroke: #000000; stroke-width: 0.8"/>
      </g>
     </g>
    </g>
    <g id="ytick_9">
     <g id="line2d_29">
      <path d="M 352.956821 143.241944 
L 637.2 143.241944 
" clip-path="url(#pa6a6567b49)" style="fill: none; stroke: #d8dee8; stroke-width: 0.8; stroke-linecap: square"/>
     </g>
     <g id="line2d_30">
      <g>
       <use xlink:href="#mdad1e0bb24" x="352.956821" y="143.241944" style="stroke: #000000; stroke-width: 0.8"/>
      </g>
     </g>
    </g>
    <g id="ytick_10">
     <g id="line2d_31">
      <path d="M 352.956821 106.242915 
L 637.2 106.242915 
" clip-path="url(#pa6a6567b49)" style="fill: none; stroke: #d8dee8; stroke-width: 0.8; stroke-linecap: square"/>
     </g>
     <g id="line2d_32">
      <g>
       <use xlink:href="#mdad1e0bb24" x="352.956821" y="106.242915" style="stroke: #000000; stroke-width: 0.8"/>
      </g>
     </g>
    </g>
    <g id="ytick_11">
     <g id="line2d_33">
      <path d="M 352.956821 69.243887 
L 637.2 69.243887 
" clip-path="url(#pa6a6567b49)" style="fill: none; stroke: #d8dee8; stroke-width: 0.8; stroke-linecap: square"/>
     </g>
     <g id="line2d_34">
      <g>
       <use xlink:href="#mdad1e0bb24" x="352.956821" y="69.243887" style="stroke: #000000; stroke-width: 0.8"/>
      </g>
     </g>
    </g>
    <g id="ytick_12">
     <g id="line2d_35">
      <path d="M 352.956821 32.244859 
L 637.2 32.244859 
" clip-path="url(#pa6a6567b49)" style="fill: none; stroke: #d8dee8; stroke-width: 0.8; stroke-linecap: square"/>
     </g>
     <g id="line2d_36">
      <g>
       <use xlink:href="#mdad1e0bb24" x="352.956821" y="32.244859" style="stroke: #000000; stroke-width: 0.8"/>
      </g>
     </g>
    </g>
   </g>
   <g id="line2d_37">
    <path d="M 536.775845 217.24 
L 536.775845 26.88 
" clip-path="url(#pa6a6567b49)" style="fill: none; stroke: #d95f02; stroke-width: 1.8; stroke-linecap: square"/>
   </g>
   <g id="line2d_38">
    <path d="M 524.508233 217.24 
L 524.508233 26.88 
" clip-path="url(#pa6a6567b49)" style="fill: none; stroke-dasharray: 5.18,2.24; stroke-dashoffset: 0; stroke: #263142; stroke-width: 1.4"/>
   </g>
   <g id="patch_80">
    <path d="M 352.956821 217.24 
L 352.956821 26.88 
" style="fill: none; stroke: #000000; stroke-width: 0.8; stroke-linejoin: miter; stroke-linecap: square"/>
   </g>
   <g id="patch_81">
    <path d="M 637.2 217.24 
L 637.2 26.88 
" style="fill: none; stroke: #000000; stroke-width: 0.8; stroke-linejoin: miter; stroke-linecap: square"/>
   </g>
   <g id="patch_82">
    <path d="M 352.956821 217.24 
L 637.2 217.24 
" style="fill: none; stroke: #000000; stroke-width: 0.8; stroke-linejoin: miter; stroke-linecap: square"/>
   </g>
   <g id="patch_83">
    <path d="M 352.956821 26.88 
L 637.2 26.88 
" style="fill: none; stroke: #000000; stroke-width: 0.8; stroke-linejoin: miter; stroke-linecap: square"/>
   </g>
   <g id="text_21">
    <!-- phi=0.8, T=400 -->
    <g transform="translate(447.271535 20.88) scale(0.12 -0.12)">
     <use xlink:href="#DejaVuSans-70"/>
     <use xlink:href="#DejaVuSans-68" transform="translate(63.476562 0)"/>
     <use xlink:href="#DejaVuSans-69" transform="translate(126.855469 0)"/>
     <use xlink:href="#DejaVuSans-3d" transform="translate(154.638672 0)"/>
     <use xlink:href="#DejaVuSans-30" transform="translate(238.427734 0)"/>
     <use xlink:href="#DejaVuSans-2e" transform="translate(302.050781 0)"/>
     <use xlink:href="#DejaVuSans-38" transform="translate(333.837891 0)"/>
     <use xlink:href="#DejaVuSans-2c" transform="translate(397.460938 0)"/>
     <use xlink:href="#DejaVuSans-20" transform="translate(429.248047 0)"/>
     <use xlink:href="#DejaVuSans-54" transform="translate(461.035156 0)"/>
     <use xlink:href="#DejaVuSans-3d" transform="translate(522.119141 0)"/>
     <use xlink:href="#DejaVuSans-34" transform="translate(605.908203 0)"/>
     <use xlink:href="#DejaVuSans-30" transform="translate(669.53125 0)"/>
     <use xlink:href="#DejaVuSans-30" transform="translate(733.154297 0)"/>
    </g>
   </g>
   <g id="legend_1">
    <g id="line2d_39">
     <path d="M 561.035938 39.978438 
L 571.035938 39.978438 
L 581.035938 39.978438 
" style="fill: none; stroke: #d95f02; stroke-width: 1.8; stroke-linecap: square"/>
    </g>
    <g id="text_22">
     <!-- true phi -->
     <g transform="translate(589.035938 43.478438) scale(0.1 -0.1)">
      <use xlink:href="#DejaVuSans-74"/>
      <use xlink:href="#DejaVuSans-72" transform="translate(39.208984 0)"/>
      <use xlink:href="#DejaVuSans-75" transform="translate(80.322266 0)"/>
      <use xlink:href="#DejaVuSans-65" transform="translate(143.701172 0)"/>
      <use xlink:href="#DejaVuSans-20" transform="translate(205.224609 0)"/>
      <use xlink:href="#DejaVuSans-70" transform="translate(237.011719 0)"/>
      <use xlink:href="#DejaVuSans-68" transform="translate(300.488281 0)"/>
      <use xlink:href="#DejaVuSans-69" transform="translate(363.867188 0)"/>
     </g>
    </g>
    <g id="line2d_40">
     <path d="M 561.035938 54.656563 
L 571.035938 54.656563 
L 581.035938 54.656563 
" style="fill: none; stroke-dasharray: 5.18,2.24; stroke-dashoffset: 0; stroke: #263142; stroke-width: 1.4"/>
    </g>
    <g id="text_23">
     <!-- mean -->
     <g transform="translate(589.035938 58.156563) scale(0.1 -0.1)">
      <defs>
       <path id="DejaVuSans-6d" d="M 3328 2828 
Q 3544 3216 3844 3400 
Q 4144 3584 4550 3584 
Q 5097 3584 5394 3201 
Q 5691 2819 5691 2113 
L 5691 0 
L 5113 0 
L 5113 2094 
Q 5113 2597 4934 2840 
Q 4756 3084 4391 3084 
Q 3944 3084 3684 2787 
Q 3425 2491 3425 1978 
L 3425 0 
L 2847 0 
L 2847 2094 
Q 2847 2600 2669 2842 
Q 2491 3084 2119 3084 
Q 1678 3084 1418 2786 
Q 1159 2488 1159 1978 
L 1159 0 
L 581 0 
L 581 3500 
L 1159 3500 
L 1159 2956 
Q 1356 3278 1631 3431 
Q 1906 3584 2284 3584 
Q 2666 3584 2933 3390 
Q 3200 3197 3328 2828 
z
" transform="scale(0.015625)"/>
      </defs>
      <use xlink:href="#DejaVuSans-6d"/>
      <use xlink:href="#DejaVuSans-65" transform="translate(97.412109 0)"/>
      <use xlink:href="#DejaVuSans-61" transform="translate(158.935547 0)"/>
      <use xlink:href="#DejaVuSans-6e" transform="translate(220.214844 0)"/>
     </g>
    </g>
   </g>
  </g>
 </g>
 <defs>
  <clipPath id="pe9b23e73bb">
   <rect x="50.87" y="26.88" width="284.243179" height="190.36"/>
  </clipPath>
  <clipPath id="pa6a6567b49">
   <rect x="352.956821" y="26.88" width="284.243179" height="190.36"/>
  </clipPath>
 </defs>
</svg>
