<svg xmlns="http://www.w3.org/2000/svg" width="980" height="760" viewBox="0 0 980 760">
<style>text{font-family:"Noto Sans",sans-serif;fill:#263142;font-size:13px}.title{font-size:20px;font-weight:700}.subtitle{font-size:15px;font-weight:700}.axis{stroke:#526173;stroke-width:1}.grid{stroke:#d8dee8;stroke-width:1}.line{fill:none;stroke-width:2}</style>
<text class="title" x="490.0" y="28" text-anchor="middle">AR(1) simulated series, T=100</text>
<text class="subtitle" x="247.5" y="72" text-anchor="middle">(a) c=2, phi=0.3, sigma=2</text>
<line class="grid" x1="63" y1="325.00" x2="465" y2="325.00"/>
<text x="56" y="329.00" text-anchor="end">-3.0</text>
<line class="grid" x1="63" y1="264.25" x2="465" y2="264.25"/>
<text x="56" y="268.25" text-anchor="end">-0.1</text>
<line class="grid" x1="63" y1="203.50" x2="465" y2="203.50"/>
<text x="56" y="207.50" text-anchor="end">2.8</text>
<line class="grid" x1="63" y1="142.75" x2="465" y2="142.75"/>
<text x="56" y="146.75" text-anchor="end">5.8</text>
<line class="grid" x1="63" y1="82.00" x2="465" y2="82.00"/>
<text x="56" y="86.00" text-anchor="end">8.7</text>
<line class="axis" x1="63" y1="325" x2="465" y2="325"/>
<line class="axis" x1="63" y1="82" x2="63" y2="325"/>
<text x="63.00" y="347" text-anchor="middle">1</text>
<text x="160.45" y="347" text-anchor="middle">25</text>
<text x="261.97" y="347" text-anchor="middle">50</text>
<text x="363.48" y="347" text-anchor="middle">75</text>
<text x="465.00" y="347" text-anchor="middle">100</text>
<polyline class="line" style="stroke:#1f77b4" points="63.00,270.75 67.06,249.46 71.12,246.07 75.18,235.80 79.24,203.22 83.30,245.51 87.36,215.33 91.42,193.54 95.48,147.02 99.55,159.29 103.61,259.12 107.67,214.91 111.73,229.62 115.79,299.40 119.85,273.11 123.91,247.70 127.97,194.65 132.03,165.69 136.09,194.09 140.15,155.27 144.21,236.45 148.27,233.55 152.33,138.08 156.39,153.28 160.45,151.73 164.52,238.59 168.58,223.71 172.64,240.73 176.70,255.85 180.76,247.31 184.82,225.85 188.88,275.41 192.94,240.61 197.00,178.53 201.06,177.05 205.12,259.67 209.18,233.91 213.24,170.13 217.30,204.05 221.36,172.63 225.42,208.99 229.48,231.65 233.55,159.27 237.61,163.90 241.67,101.88 245.73,273.24 249.79,276.10 253.85,229.68 257.91,237.58 261.97,250.97 266.03,191.62 270.09,216.55 274.15,141.96 278.21,231.33 282.27,286.02 286.33,185.59 290.39,227.35 294.45,199.77 298.52,197.63 302.58,223.89 306.64,211.18 310.70,168.31 314.76,202.82 318.82,143.83 322.88,186.04 326.94,165.61 331.00,185.12 335.06,170.73 339.12,221.34 343.18,220.50 347.24,280.02 351.30,198.93 355.36,94.41 359.42,148.31 363.48,231.64 367.55,218.67 371.61,193.17 375.67,178.22 379.73,199.85 383.79,259.71 387.85,214.08 391.91,207.81 395.97,196.10 400.03,213.73 404.09,242.07 408.15,228.54 412.21,277.53 416.27,308.45 420.33,312.59 424.39,249.25 428.45,233.00 432.52,215.96 436.58,208.30 440.64,144.35 444.70,210.98 448.76,226.15 452.82,142.10 456.88,157.89 460.94,150.30 465.00,225.07"/>
<text class="subtitle" x="732.5" y="72" text-anchor="middle">(b) c=-2, phi=-0.8, sigma=1</text>
<line class="grid" x1="548" y1="325.00" x2="950" y2="325.00"/>
<text x="541" y="329.00" text-anchor="end">-5.8</text>
<line class="grid" x1="548" y1="264.25" x2="950" y2="264.25"/>
<text x="541" y="268.25" text-anchor="end">-3.5</text>
<line class="grid" x1="548" y1="203.50" x2="950" y2="203.50"/>
<text x="541" y="207.50" text-anchor="end">-1.2</text>
<line class="grid" x1="548" y1="142.75" x2="950" y2="142.75"/>
<text x="541" y="146.75" text-anchor="end">1.1</text>
<line class="grid" x1="548" y1="82.00" x2="950" y2="82.00"/>
<text x="541" y="86.00" text-anchor="end">3.4</text>
<line class="axis" x1="548" y1="325" x2="950" y2="325"/>
<line class="axis" x1="548" y1="82" x2="548" y2="325"/>
<text x="548.00" y="347" text-anchor="middle">1</text>
<text x="645.45" y="347" text-anchor="middle">25</text>
<text x="746.97" y="347" text-anchor="middle">50</text>
<text x="848.48" y="347" text-anchor="middle">75</text>
<text x="950.00" y="347" text-anchor="middle">100</text>
<polyline class="line" style="stroke:#d95f02" points="548.00,145.88 552.06,272.20 556.12,150.38 560.18,265.65 564.24,111.08 568.30,250.22 572.36,153.30 576.42,248.53 580.48,165.61 584.55,221.66 588.61,214.86 592.67,230.85 596.73,194.81 600.79,228.61 604.85,170.02 608.91,204.95 612.97,197.94 617.03,180.89 621.09,260.96 625.15,148.03 629.21,289.71 633.27,133.07 637.33,274.01 641.39,105.48 645.45,238.38 649.52,152.73 653.58,223.48 657.64,194.65 661.70,234.17 665.76,129.01 669.82,222.19 673.88,218.11 677.94,206.30 682.00,138.20 686.06,244.44 690.12,156.77 694.18,209.89 698.24,190.55 702.30,253.88 706.36,126.60 710.42,273.61 714.48,130.75 718.55,213.70 722.61,186.69 726.67,199.84 730.73,180.63 734.79,214.38 738.85,146.62 742.91,222.68 746.97,204.10 751.03,174.08 755.09,257.12 759.15,176.56 763.21,229.54 767.27,148.17 771.33,268.49 775.39,148.53 779.45,235.81 783.52,193.86 787.58,183.96 791.64,280.23 795.70,130.29 799.76,267.48 803.82,169.86 807.88,212.92 811.94,220.54 816.00,175.24 820.06,260.00 824.12,190.86 828.18,204.66 832.24,185.39 836.30,235.02 840.36,153.38 844.42,256.02 848.48,113.16 852.55,293.88 856.61,123.84 860.67,258.35 864.73,193.71 868.79,218.83 872.85,184.81 876.91,199.73 880.97,221.43 885.03,236.11 889.09,166.22 893.15,237.95 897.21,139.03 901.27,238.58 905.33,152.38 909.39,265.18 913.45,97.83 917.52,280.71 921.58,122.69 925.64,264.02 929.70,108.33 933.76,309.17 937.82,114.59 941.88,302.90 945.94,149.55 950.00,231.35"/>
<text class="subtitle" x="247.5" y="422" text-anchor="middle">(c) c=2, phi=1.0, sigma=1</text>
<line class="grid" x1="63" y1="675.00" x2="465" y2="675.00"/>
<text x="56" y="679.00" text-anchor="end">-0.6</text>
<line class="grid" x1="63" y1="614.25" x2="465" y2="614.25"/>
<text x="56" y="618.25" text-anchor="end">44.2</text>
<line class="grid" x1="63" y1="553.50" x2="465" y2="553.50"/>
<text x="56" y="557.50" text-anchor="end">89.0</text>
<line class="grid" x1="63" y1="492.75" x2="465" y2="492.75"/>
<text x="56" y="496.75" text-anchor="end">133.9</text>
<line class="grid" x1="63" y1="432.00" x2="465" y2="432.00"/>
<text x="56" y="436.00" text-anchor="end">178.7</text>
<line class="axis" x1="63" y1="675" x2="465" y2="675"/>
<line class="axis" x1="63" y1="432" x2="63" y2="675"/>
<text x="63.00" y="697" text-anchor="middle">1</text>
<text x="160.45" y="697" text-anchor="middle">25</text>
<text x="261.97" y="697" text-anchor="middle">50</text>
<text x="363.48" y="697" text-anchor="middle">75</text>
<text x="465.00" y="697" text-anchor="middle">100</text>
<polyline class="line" style="stroke:#2ca02c" points="63.00,674.19 67.06,671.14 71.12,668.20 75.18,663.38 79.24,659.63 83.30,659.78 87.36,657.20 91.42,653.14 95.48,649.82 99.55,648.31 103.61,644.92 107.67,643.36 111.73,640.75 115.79,637.39 119.85,636.81 123.91,633.50 127.97,628.21 132.03,626.14 136.09,622.97 140.15,620.74 144.21,620.24 148.27,619.10 152.33,616.46 156.39,615.45 160.45,611.45 164.52,610.57 168.58,608.99 172.64,609.30 176.70,607.15 180.76,606.34 184.82,604.78 188.88,603.60 192.94,601.48 197.00,598.53 201.06,596.87 205.12,592.77 209.18,591.74 213.24,589.19 217.30,588.72 221.36,584.97 225.42,584.25 229.48,581.53 233.55,578.31 237.61,575.38 241.67,573.75 245.73,572.08 249.79,568.94 253.85,566.60 257.91,564.05 261.97,559.74 266.03,556.21 270.09,552.58 274.15,549.63 278.21,547.90 282.27,544.94 286.33,542.51 290.39,539.47 294.45,535.61 298.52,533.98 302.58,528.99 306.64,525.83 310.70,520.90 314.76,516.51 318.82,513.45 322.88,512.49 326.94,508.41 331.00,506.62 335.06,505.20 339.12,503.28 343.18,500.62 347.24,499.19 351.30,495.08 355.36,491.68 359.42,489.63 363.48,487.52 367.55,488.36 371.61,486.14 375.67,483.22 379.73,479.49 383.79,481.62 387.85,477.69 391.91,475.85 395.97,473.45 400.03,471.39 404.09,470.49 408.15,469.43 412.21,467.78 416.27,464.16 420.33,462.05 424.39,458.26 428.45,455.37 432.52,453.96 436.58,451.38 440.64,448.03 444.70,445.67 448.76,441.98 452.82,439.42 456.88,438.39 460.94,434.59 465.00,432.81"/>
<text class="subtitle" x="732.5" y="422" text-anchor="middle">(d) c=2, phi=1.1, sigma=1</text>
<line class="grid" x1="548" y1="675.00" x2="950" y2="675.00"/>
<text x="541" y="679.00" text-anchor="end">-0.6</text>
<line class="grid" x1="548" y1="614.25" x2="950" y2="614.25"/>
<text x="541" y="618.25" text-anchor="end">61557.1</text>
<line class="grid" x1="548" y1="553.50" x2="950" y2="553.50"/>
<text x="541" y="557.50" text-anchor="end">123114.8</text>
<line class="grid" x1="548" y1="492.75" x2="950" y2="492.75"/>
<text x="541" y="496.75" text-anchor="end">184672.5</text>
<line class="grid" x1="548" y1="432.00" x2="950" y2="432.00"/>
<text x="541" y="436.00" text-anchor="end">246230.3</text>
<line class="axis" x1="548" y1="675" x2="950" y2="675"/>
<line class="axis" x1="548" y1="432" x2="548" y2="675"/>
<text x="548.00" y="697" text-anchor="middle">1</text>
<text x="645.45" y="697" text-anchor="middle">25</text>
<text x="746.97" y="697" text-anchor="middle">50</text>
<text x="848.48" y="697" text-anchor="middle">75</text>
<text x="950.00" y="697" text-anchor="middle">100</text>
<polyline class="line" style="stroke:#756bb1" points="548.00,675.00 552.06,675.00 556.12,675.00 560.18,674.99 564.24,674.99 568.30,674.99 572.36,674.99 576.42,674.98 580.48,674.98 584.55,674.98 588.61,674.97 592.67,674.97 596.73,674.96 600.79,674.95 604.85,674.94 608.91,674.94 612.97,674.93 617.03,674.92 621.09,674.91 625.15,674.90 629.21,674.89 633.27,674.87 637.33,674.86 641.39,674.84 645.45,674.82 649.52,674.80 653.58,674.78 657.64,674.76 661.70,674.73 665.76,674.71 669.82,674.68 673.88,674.64 677.94,674.61 682.00,674.57 686.06,674.52 690.12,674.47 694.18,674.42 698.24,674.36 702.30,674.29 706.36,674.22 710.42,674.14 714.48,674.06 718.55,673.96 722.61,673.85 726.67,673.74 730.73,673.61 734.79,673.47 738.85,673.31 742.91,673.14 746.97,672.95 751.03,672.75 755.09,672.52 759.15,672.27 763.21,671.99 767.27,671.69 771.33,671.35 775.39,670.99 779.45,670.58 783.52,670.14 787.58,669.65 791.64,669.11 795.70,668.52 799.76,667.87 803.82,667.16 807.88,666.37 811.94,665.51 816.00,664.55 820.06,663.51 824.12,662.36 828.18,661.09 832.24,659.69 836.30,658.16 840.36,656.48 844.42,654.62 848.48,652.58 852.55,650.34 856.61,647.88 860.67,645.16 864.73,642.18 868.79,638.90 872.85,635.28 876.91,631.31 880.97,626.94 885.03,622.13 889.09,616.84 893.15,611.02 897.21,604.62 901.27,597.58 905.33,589.84 909.39,581.32 913.45,571.95 917.52,561.65 921.58,550.31 925.64,537.84 929.70,524.12 933.76,509.03 937.82,492.43 941.88,474.18 945.94,454.09 950.00,432.00"/>
</svg>