<svg xmlns="http://www.w3.org/2000/svg" width="980" height="760" viewBox="0 0 980 760">
<style>text{font-family:"Noto Sans",sans-serif;fill:#263142;font-size:13px}.title{font-size:20px;font-weight:700}.subtitle{font-size:15px;font-weight:700}.axis{stroke:#526173;stroke-width:1}.grid{stroke:#d8dee8;stroke-width:1}.bar{stroke:#1f77b4;stroke-width:7}.bound{stroke:#d95f02;stroke-width:1.5;stroke-dasharray:7 5}</style>
<text class="title" x="490.0" y="28" text-anchor="middle">Correlograms of AR(1) series</text>
<text class="subtitle" x="247.5" y="72" text-anchor="middle">(a) c=2, phi=0.3, sigma=2</text>
<line class="grid" x1="63" y1="325.00" x2="465" y2="325.00"/>
<text x="56" y="329.00" text-anchor="end">-0.60</text>
<line class="grid" x1="63" y1="264.25" x2="465" y2="264.25"/>
<text x="56" y="268.25" text-anchor="end">-0.20</text>
<line class="grid" x1="63" y1="203.50" x2="465" y2="203.50"/>
<text x="56" y="207.50" text-anchor="end">0.20</text>
<line class="grid" x1="63" y1="142.75" x2="465" y2="142.75"/>
<text x="56" y="146.75" text-anchor="end">0.60</text>
<line class="grid" x1="63" y1="82.00" x2="465" y2="82.00"/>
<text x="56" y="86.00" text-anchor="end">1.00</text>
<line class="axis" x1="63" y1="233.88" x2="465" y2="233.88"/>
<line class="axis" x1="63" y1="82" x2="63" y2="325"/>
<line class="bound" x1="63" y1="204.11" x2="465" y2="204.11"/>
<line class="bound" x1="63" y1="263.64" x2="465" y2="263.64"/>
<line class="bar" x1="63.00" y1="233.88" x2="63.00" y2="176.83"/>
<text x="63.00" y="347" text-anchor="middle">1</text>
<line class="bar" x1="107.67" y1="233.88" x2="107.67" y2="225.63"/>
<text x="107.67" y="347" text-anchor="middle">2</text>
<line class="bar" x1="152.33" y1="233.88" x2="152.33" y2="235.88"/>
<text x="152.33" y="347" text-anchor="middle">3</text>
<line class="bar" x1="197.00" y1="233.88" x2="197.00" y2="236.14"/>
<text x="197.00" y="347" text-anchor="middle">4</text>
<line class="bar" x1="241.67" y1="233.88" x2="241.67" y2="229.12"/>
<text x="241.67" y="347" text-anchor="middle">5</text>
<line class="bar" x1="286.33" y1="233.88" x2="286.33" y2="252.87"/>
<text x="286.33" y="347" text-anchor="middle">6</text>
<line class="bar" x1="331.00" y1="233.88" x2="331.00" y2="260.29"/>
<text x="331.00" y="347" text-anchor="middle">7</text>
<line class="bar" x1="375.67" y1="233.88" x2="375.67" y2="241.94"/>
<text x="375.67" y="347" text-anchor="middle">8</text>
<line class="bar" x1="420.33" y1="233.88" x2="420.33" y2="253.71"/>
<text x="420.33" y="347" text-anchor="middle">9</text>
<line class="bar" x1="465.00" y1="233.88" x2="465.00" y2="240.70"/>
<text x="465.00" y="347" text-anchor="middle">10</text>
<text class="subtitle" x="732.5" y="72" text-anchor="middle">(b) c=-2, phi=-0.8, sigma=1</text>
<line class="grid" x1="548" y1="325.00" x2="950" y2="325.00"/>
<text x="541" y="329.00" text-anchor="end">-0.60</text>
<line class="grid" x1="548" y1="264.25" x2="950" y2="264.25"/>
<text x="541" y="268.25" text-anchor="end">-0.20</text>
<line class="grid" x1="548" y1="203.50" x2="950" y2="203.50"/>
<text x="541" y="207.50" text-anchor="end">0.20</text>
<line class="grid" x1="548" y1="142.75" x2="950" y2="142.75"/>
<text x="541" y="146.75" text-anchor="end">0.60</text>
<line class="grid" x1="548" y1="82.00" x2="950" y2="82.00"/>
<text x="541" y="86.00" text-anchor="end">1.00</text>
<line class="axis" x1="548" y1="233.88" x2="950" y2="233.88"/>
<line class="axis" x1="548" y1="82" x2="548" y2="325"/>
<line class="bound" x1="548" y1="204.11" x2="950" y2="204.11"/>
<line class="bound" x1="548" y1="263.64" x2="950" y2="263.64"/>
<line class="bar" x1="548.00" y1="233.88" x2="548.00" y2="364.26"/>
<text x="548.00" y="347" text-anchor="middle">1</text>
<line class="bar" x1="592.67" y1="233.88" x2="592.67" y2="124.01"/>
<text x="592.67" y="347" text-anchor="middle">2</text>
<line class="bar" x1="637.33" y1="233.88" x2="637.33" y2="323.76"/>
<text x="637.33" y="347" text-anchor="middle">3</text>
<line class="bar" x1="682.00" y1="233.88" x2="682.00" y2="159.97"/>
<text x="682.00" y="347" text-anchor="middle">4</text>
<line class="bar" x1="726.67" y1="233.88" x2="726.67" y2="295.45"/>
<text x="726.67" y="347" text-anchor="middle">5</text>
<line class="bar" x1="771.33" y1="233.88" x2="771.33" y2="182.67"/>
<text x="771.33" y="347" text-anchor="middle">6</text>
<line class="bar" x1="816.00" y1="233.88" x2="816.00" y2="275.91"/>
<text x="816.00" y="347" text-anchor="middle">7</text>
<line class="bar" x1="860.67" y1="233.88" x2="860.67" y2="198.83"/>
<text x="860.67" y="347" text-anchor="middle">8</text>
<line class="bar" x1="905.33" y1="233.88" x2="905.33" y2="263.22"/>
<text x="905.33" y="347" text-anchor="middle">9</text>
<line class="bar" x1="950.00" y1="233.88" x2="950.00" y2="207.28"/>
<text x="950.00" y="347" text-anchor="middle">10</text>
<text class="subtitle" x="247.5" y="422" text-anchor="middle">(c) c=2, phi=1.0, sigma=1</text>
<line class="grid" x1="63" y1="675.00" x2="465" y2="675.00"/>
<text x="56" y="679.00" text-anchor="end">-0.60</text>
<line class="grid" x1="63" y1="614.25" x2="465" y2="614.25"/>
<text x="56" y="618.25" text-anchor="end">-0.20</text>
<line class="grid" x1="63" y1="553.50" x2="465" y2="553.50"/>
<text x="56" y="557.50" text-anchor="end">0.20</text>
<line class="grid" x1="63" y1="492.75" x2="465" y2="492.75"/>
<text x="56" y="496.75" text-anchor="end">0.60</text>
<line class="grid" x1="63" y1="432.00" x2="465" y2="432.00"/>
<text x="56" y="436.00" text-anchor="end">1.00</text>
<line class="axis" x1="63" y1="583.88" x2="465" y2="583.88"/>
<line class="axis" x1="63" y1="432" x2="63" y2="675"/>
<line class="bound" x1="63" y1="554.11" x2="465" y2="554.11"/>
<line class="bound" x1="63" y1="613.64" x2="465" y2="613.64"/>
<line class="bar" x1="63.00" y1="583.88" x2="63.00" y2="436.62"/>
<text x="63.00" y="697" text-anchor="middle">1</text>
<line class="bar" x1="107.67" y1="583.88" x2="107.67" y2="441.23"/>
<text x="107.67" y="697" text-anchor="middle">2</text>
<line class="bar" x1="152.33" y1="583.88" x2="152.33" y2="445.77"/>
<text x="152.33" y="697" text-anchor="middle">3</text>
<line class="bar" x1="197.00" y1="583.88" x2="197.00" y2="450.28"/>
<text x="197.00" y="697" text-anchor="middle">4</text>
<line class="bar" x1="241.67" y1="583.88" x2="241.67" y2="454.72"/>
<text x="241.67" y="697" text-anchor="middle">5</text>
<line class="bar" x1="286.33" y1="583.88" x2="286.33" y2="459.20"/>
<text x="286.33" y="697" text-anchor="middle">6</text>
<line class="bar" x1="331.00" y1="583.88" x2="331.00" y2="463.67"/>
<text x="331.00" y="697" text-anchor="middle">7</text>
<line class="bar" x1="375.67" y1="583.88" x2="375.67" y2="468.04"/>
<text x="375.67" y="697" text-anchor="middle">8</text>
<line class="bar" x1="420.33" y1="583.88" x2="420.33" y2="472.34"/>
<text x="420.33" y="697" text-anchor="middle">9</text>
<line class="bar" x1="465.00" y1="583.88" x2="465.00" y2="476.71"/>
<text x="465.00" y="697" text-anchor="middle">10</text>
<text class="subtitle" x="732.5" y="422" text-anchor="middle">(d) c=2, phi=1.1, sigma=1</text>
<line class="grid" x1="548" y1="675.00" x2="950" y2="675.00"/>
<text x="541" y="679.00" text-anchor="end">-0.60</text>
<line class="grid" x1="548" y1="614.25" x2="950" y2="614.25"/>
<text x="541" y="618.25" text-anchor="end">-0.20</text>
<line class="grid" x1="548" y1="553.50" x2="950" y2="553.50"/>
<text x="541" y="557.50" text-anchor="end">0.20</text>
<line class="grid" x1="548" y1="492.75" x2="950" y2="492.75"/>
<text x="541" y="496.75" text-anchor="end">0.60</text>
<line class="grid" x1="548" y1="432.00" x2="950" y2="432.00"/>
<text x="541" y="436.00" text-anchor="end">1.00</text>
<line class="axis" x1="548" y1="583.88" x2="950" y2="583.88"/>
<line class="axis" x1="548" y1="432" x2="548" y2="675"/>
<line class="bound" x1="548" y1="554.11" x2="950" y2="554.11"/>
<line class="bound" x1="548" y1="613.64" x2="950" y2="613.64"/>
<line class="bar" x1="548.00" y1="583.88" x2="548.00" y2="446.21"/>
<text x="548.00" y="697" text-anchor="middle">1</text>
<line class="bar" x1="592.67" y1="583.88" x2="592.67" y2="459.16"/>
<text x="592.67" y="697" text-anchor="middle">2</text>
<line class="bar" x1="637.33" y1="583.88" x2="637.33" y2="470.98"/>
<text x="637.33" y="697" text-anchor="middle">3</text>
<line class="bar" x1="682.00" y1="583.88" x2="682.00" y2="481.75"/>
<text x="682.00" y="697" text-anchor="middle">4</text>
<line class="bar" x1="726.67" y1="583.88" x2="726.67" y2="491.59"/>
<text x="726.67" y="697" text-anchor="middle">5</text>
<line class="bar" x1="771.33" y1="583.88" x2="771.33" y2="500.56"/>
<text x="771.33" y="697" text-anchor="middle">6</text>
<line class="bar" x1="816.00" y1="583.88" x2="816.00" y2="508.76"/>
<text x="816.00" y="697" text-anchor="middle">7</text>
<line class="bar" x1="860.67" y1="583.88" x2="860.67" y2="516.25"/>
<text x="860.67" y="697" text-anchor="middle">8</text>
<line class="bar" x1="905.33" y1="583.88" x2="905.33" y2="523.09"/>
<text x="905.33" y="697" text-anchor="middle">9</text>
<line class="bar" x1="950.00" y1="583.88" x2="950.00" y2="529.35"/>
<text x="950.00" y="697" text-anchor="middle">10</text>
</svg>
