<svg xmlns="http://www.w3.org/2000/svg" width="980" height="760" viewBox="0 0 980 760">
<style>text{font-family:"Noto Sans CJK JP","Noto Sans",sans-serif;fill:#263142;font-size:13px}.title{font-size:20px;font-weight:700}.subtitle{font-size:16px;font-weight:700}.axis{stroke:#526173;stroke-width:1}.grid{stroke:#d8dee8;stroke-width:1}.line{fill:none;stroke-width:2}</style>
<text class="title" x="490.0" y="28" text-anchor="middle">実質季節調整GDPの変換系列</text>
<text class="subtitle" x="75" y="58">原系列 (10億円)</text>
<line class="grid" x1="75" y1="247.00" x2="955" y2="247.00"/>
<text x="67" y="251.00" text-anchor="end">450907.260</text>
<line class="grid" x1="75" y1="191.33" x2="955" y2="191.33"/>
<text x="67" y="195.33" text-anchor="end">502066.353</text>
<line class="grid" x1="75" y1="135.67" x2="955" y2="135.67"/>
<text x="67" y="139.67" text-anchor="end">553225.447</text>
<line class="grid" x1="75" y1="80.00" x2="955" y2="80.00"/>
<text x="67" y="84.00" text-anchor="end">604384.540</text>
<line class="axis" x1="75" y1="247" x2="955" y2="247"/>
<line class="axis" x1="75" y1="80" x2="75" y2="247"/>
<polyline class="line" style="stroke:#1f77b4" points="75.00,235.48 81.98,230.43 88.97,232.32 95.95,227.43 102.94,222.80 109.92,216.88 116.90,215.57 123.89,210.70 130.87,205.01 137.86,204.04 144.84,198.32 151.83,194.77 158.81,198.59 165.79,197.75 172.78,197.81 179.76,206.35 186.75,209.29 193.73,208.60 200.71,204.03 207.70,211.83 214.68,209.17 221.67,206.23 228.65,206.55 235.63,196.57 242.62,193.26 249.60,193.51 256.59,187.87 263.57,184.65 270.56,188.85 277.54,195.31 284.52,196.49 291.51,195.12 298.49,191.23 305.48,189.55 312.46,188.27 319.44,188.90 326.43,184.37 333.41,182.76 340.40,177.15 347.38,172.35 354.37,172.77 361.35,169.64 368.33,171.80 375.32,168.30 382.30,162.83 389.29,157.65 396.27,156.02 403.25,155.56 410.24,153.95 417.22,154.04 424.21,146.19 431.19,141.94 438.17,141.02 445.16,144.94 452.14,141.57 459.13,140.31 466.11,143.18 473.10,149.81 480.08,163.75 487.06,189.20 494.05,183.06 501.03,186.68 508.02,177.82 515.00,170.88 521.98,163.06 528.97,153.17 535.95,158.17 542.94,166.50 549.92,170.14 556.90,156.57 563.89,156.35 570.87,147.53 577.86,152.99 584.84,155.31 591.83,155.62 598.81,148.20 605.79,142.14 612.78,136.50 619.76,137.33 626.75,131.07 633.73,139.78 640.71,138.62 647.70,135.15 654.68,125.47 661.67,125.08 668.65,124.19 675.63,125.36 682.62,120.06 689.60,122.15 696.59,120.77 703.57,120.67 710.56,116.20 717.54,114.17 724.52,107.09 731.51,106.10 738.49,107.10 745.48,103.09 752.46,106.22 759.44,105.77 766.43,104.98 773.41,102.45 780.40,102.18 787.38,120.45 794.37,118.08 801.35,162.80 808.33,134.22 815.32,124.12 822.30,117.51 829.29,112.98 836.27,114.04 843.25,106.53 850.24,108.75 857.22,102.65 864.21,105.15 871.19,102.25 878.17,97.43 885.16,96.17 892.14,105.17 899.13,101.89 906.11,105.32 913.10,104.17 920.08,100.03 927.06,97.08 934.05,95.37 941.03,91.52 948.02,95.73 955.00,93.63"/>
<text class="subtitle" x="75" y="288">対数系列 (log)</text>
<line class="grid" x1="75" y1="477.00" x2="955" y2="477.00"/>
<text x="67" y="481.00" text-anchor="end">13.022</text>
<line class="grid" x1="75" y1="421.33" x2="955" y2="421.33"/>
<text x="67" y="425.33" text-anchor="end">13.120</text>
<line class="grid" x1="75" y1="365.67" x2="955" y2="365.67"/>
<text x="67" y="369.67" text-anchor="end">13.217</text>
<line class="grid" x1="75" y1="310.00" x2="955" y2="310.00"/>
<text x="67" y="314.00" text-anchor="end">13.314</text>
<line class="axis" x1="75" y1="477" x2="955" y2="477"/>
<line class="axis" x1="75" y1="310" x2="75" y2="477"/>
<polyline class="line" style="stroke:#d95f02" points="75.00,465.48 81.98,459.77 88.97,461.90 95.95,456.40 102.94,451.24 109.92,444.70 116.90,443.28 123.89,437.97 130.87,431.84 137.86,430.80 144.84,424.71 151.83,420.96 158.81,424.99 165.79,424.10 172.78,424.17 179.76,433.28 186.75,436.45 193.73,435.70 200.71,430.79 207.70,439.19 214.68,436.31 221.67,433.15 228.65,433.49 235.63,422.85 242.62,419.38 249.60,419.63 256.59,413.74 263.57,410.42 270.56,414.76 277.54,421.53 284.52,422.78 291.51,421.33 298.49,417.25 305.48,415.49 312.46,414.16 319.44,414.82 326.43,410.12 333.41,408.47 340.40,402.72 347.38,397.85 354.37,398.27 361.35,395.12 368.33,397.30 375.32,393.77 382.30,388.31 389.29,383.19 396.27,381.58 403.25,381.14 410.24,379.56 417.22,379.64 424.21,372.01 431.19,367.92 438.17,367.04 445.16,370.81 452.14,367.56 459.13,366.37 466.11,369.12 473.10,375.52 480.08,389.22 487.06,415.13 494.05,408.77 501.03,412.51 508.02,403.40 515.00,396.36 521.98,388.54 528.97,378.79 535.95,383.70 542.94,391.96 549.92,395.62 556.90,382.13 563.89,381.91 570.87,373.31 577.86,378.61 584.84,380.89 591.83,381.19 598.81,373.96 605.79,368.11 612.78,362.73 619.76,363.52 626.75,357.59 633.73,365.86 640.71,364.75 647.70,361.45 654.68,352.34 661.67,351.98 668.65,351.15 675.63,352.24 682.62,347.32 689.60,349.26 696.59,347.98 703.57,347.89 710.56,343.76 717.54,341.90 724.52,335.46 731.51,334.56 738.49,335.46 745.48,331.84 752.46,334.66 759.44,334.25 766.43,333.54 773.41,331.27 780.40,331.02 787.38,347.68 794.37,345.49 801.35,388.28 808.33,360.56 815.32,351.09 822.30,344.96 829.29,340.81 836.27,341.79 843.25,334.95 850.24,336.95 857.22,331.44 864.21,333.70 871.19,331.09 878.17,326.77 885.16,325.64 892.14,333.72 899.13,330.76 906.11,333.85 913.10,332.81 920.08,329.09 927.06,326.46 934.05,324.93 941.03,321.52 948.02,325.25 955.00,323.39"/>
<text class="subtitle" x="75" y="518">対数差分系列 (前期差)</text>
<line class="grid" x1="75" y1="707.00" x2="955" y2="707.00"/>
<text x="67" y="711.00" text-anchor="end">-0.085</text>
<line class="grid" x1="75" y1="651.33" x2="955" y2="651.33"/>
<text x="67" y="655.33" text-anchor="end">-0.037</text>
<line class="grid" x1="75" y1="595.67" x2="955" y2="595.67"/>
<text x="67" y="599.67" text-anchor="end">0.011</text>
<line class="grid" x1="75" y1="540.00" x2="955" y2="540.00"/>
<text x="67" y="544.00" text-anchor="end">0.058</text>
<line class="axis" x1="75" y1="707" x2="955" y2="707"/>
<line class="axis" x1="75" y1="540" x2="75" y2="707"/>
<polyline class="line" style="stroke:#2b8a3e" points="75.00,617.10 81.98,596.44 88.97,612.47 95.95,596.87 102.94,597.58 109.92,594.78 116.90,605.20 123.89,597.27 130.87,595.60 137.86,605.99 144.84,595.68 151.83,600.46 158.81,616.34 165.79,606.29 172.78,608.25 179.76,626.71 186.75,614.58 193.73,606.58 200.71,598.09 207.70,625.27 214.68,602.23 221.67,601.65 228.65,608.81 235.63,586.40 242.62,601.01 249.60,608.63 256.59,596.09 263.57,601.32 270.56,616.99 277.54,621.92 284.52,610.66 291.51,605.16 298.49,599.77 305.48,604.53 312.46,605.39 319.44,609.45 326.43,598.53 333.41,604.73 340.40,596.38 347.38,598.17 354.37,608.97 361.35,601.67 368.33,612.56 375.32,600.92 382.30,596.96 389.29,597.65 396.27,604.83 403.25,607.20 410.24,604.89 417.22,608.28 424.21,592.53 431.19,599.75 438.17,606.31 445.16,615.81 452.14,601.49 459.13,605.67 466.11,613.73 473.10,621.18 480.08,636.09 487.06,661.01 494.05,595.13 501.03,615.75 508.02,589.51 515.00,593.75 521.98,592.13 528.97,588.22 535.95,618.13 542.94,624.98 549.92,615.57 556.90,580.57 563.89,607.67 570.87,590.54 577.86,618.95 584.84,612.76 591.83,608.72 598.81,593.35 605.79,596.18 612.78,597.12 619.76,609.72 626.75,596.02 633.73,624.98 640.71,605.86 647.70,601.36 654.68,589.53 661.67,607.38 668.65,606.41 675.63,610.34 682.62,598.07 689.60,612.07 696.59,605.51 703.57,607.92 710.56,599.69 717.54,604.31 724.52,594.95 731.51,606.27 738.49,609.96 745.48,600.72 752.46,613.88 759.44,607.27 766.43,606.66 773.41,603.47 780.40,607.62 787.38,642.13 794.37,603.63 801.35,695.48 808.33,551.52 815.32,588.77 822.30,595.61 829.29,599.63 836.27,610.10 843.25,594.15 850.24,612.21 857.22,596.87 864.21,612.71 871.19,602.78 878.17,599.29 885.16,605.82 892.14,624.60 899.13,602.07 906.11,614.42 913.10,605.99 920.08,600.51 927.06,602.74 934.05,604.99 941.03,601.14 948.02,615.74 955.00,604.31"/>
<text x="75.00" y="731" text-anchor="middle">1994Q2</text>
<text x="179.76" y="731" text-anchor="middle">1998Q1</text>
<text x="284.52" y="731" text-anchor="middle">2001Q4</text>
<text x="389.29" y="731" text-anchor="middle">2005Q3</text>
<text x="494.05" y="731" text-anchor="middle">2009Q2</text>
<text x="598.81" y="731" text-anchor="middle">2013Q1</text>
<text x="703.57" y="731" text-anchor="middle">2016Q4</text>
<text x="808.33" y="731" text-anchor="middle">2020Q3</text>
<text x="913.10" y="731" text-anchor="middle">2024Q2</text>
</svg>