<svg xmlns="http://www.w3.org/2000/svg" width="980" height="430" viewBox="0 0 980 430">
<style>text{font-family:"Noto Sans CJK JP","Noto Sans",sans-serif;fill:#263142;font-size:13px}.title{font-size:20px;font-weight:700}.axis{stroke:#526173;stroke-width:1}.grid{stroke:#d8dee8;stroke-width:1}.line{fill:none;stroke:#1f77b4;stroke-width:2.2}</style>
<text class="title" x="490.0" y="28" text-anchor="middle">実質季節調整GDPの変化率</text>
<text x="18" y="215.0" transform="rotate(-90 18 215.0)" text-anchor="middle">前期比</text>
<line class="grid" x1="75" y1="375.00" x2="955" y2="375.00"/>
<text x="67" y="379.00" text-anchor="end">-0.082</text>
<line class="grid" x1="75" y1="293.75" x2="955" y2="293.75"/>
<text x="67" y="297.75" text-anchor="end">-0.047</text>
<line class="grid" x1="75" y1="212.50" x2="955" y2="212.50"/>
<text x="67" y="216.50" text-anchor="end">-0.011</text>
<line class="grid" x1="75" y1="131.25" x2="955" y2="131.25"/>
<text x="67" y="135.25" text-anchor="end">0.024</text>
<line class="grid" x1="75" y1="50.00" x2="955" y2="50.00"/>
<text x="67" y="54.00" text-anchor="end">0.059</text>
<line class="axis" x1="75" y1="375" x2="955" y2="375"/>
<line class="axis" x1="75" y1="50" x2="75" y2="375"/>
<text x="75.00" y="399" text-anchor="middle">1994Q2</text>
<text x="179.76" y="399" text-anchor="middle">1998Q1</text>
<text x="284.52" y="399" text-anchor="middle">2001Q4</text>
<text x="389.29" y="399" text-anchor="middle">2005Q3</text>
<text x="494.05" y="399" text-anchor="middle">2009Q2</text>
<text x="598.81" y="399" text-anchor="middle">2013Q1</text>
<text x="703.57" y="399" text-anchor="middle">2016Q4</text>
<text x="808.33" y="399" text-anchor="middle">2020Q3</text>
<text x="913.10" y="399" text-anchor="middle">2024Q2</text>
<polyline class="line" points="75.00,204.34 81.98,163.58 88.97,195.27 95.95,164.44 102.94,165.84 109.92,160.26 116.90,180.95 123.89,165.24 130.87,161.91 137.86,182.51 144.84,162.06 151.83,171.56 158.81,202.86 165.79,183.10 172.78,186.98 179.76,223.06 186.75,199.40 193.73,183.68 200.71,166.87 207.70,220.26 214.68,175.08 221.67,173.93 228.65,188.07 235.63,143.50 242.62,172.66 249.60,187.73 256.59,162.88 263.57,173.26 270.56,204.13 277.54,213.75 284.52,191.71 291.51,180.87 298.49,170.20 305.48,179.62 312.46,181.33 319.44,189.34 326.43,167.74 333.41,180.03 340.40,163.46 347.38,167.02 354.37,188.39 361.35,173.96 368.33,195.45 375.32,172.47 382.30,164.62 389.29,165.99 396.27,180.22 403.25,184.90 410.24,180.34 417.22,187.04 424.21,155.78 431.19,170.17 438.17,183.15 445.16,201.82 452.14,173.61 459.13,181.87 466.11,197.74 473.10,212.31 480.08,241.19 487.06,288.61 494.05,160.97 501.03,201.69 508.02,149.74 515.00,158.22 521.98,154.98 528.97,147.16 535.95,206.36 542.94,219.70 549.92,201.35 556.90,131.77 563.89,185.83 570.87,151.81 577.86,207.95 584.84,195.85 591.83,187.89 598.81,157.42 605.79,163.06 612.78,164.94 619.76,189.87 626.75,162.74 633.73,219.70 640.71,182.25 647.70,173.35 654.68,149.78 661.67,185.25 668.65,183.35 675.63,191.08 682.62,166.81 689.60,194.48 696.59,181.56 703.57,186.32 710.56,170.05 717.54,179.20 724.52,160.61 731.51,183.07 738.49,190.34 745.48,172.08 752.46,198.03 759.44,185.04 766.43,183.83 773.41,177.52 780.40,185.72 787.38,252.76 794.37,177.85 801.35,352.59 808.33,72.41 815.32,148.26 822.30,161.92 829.29,169.92 836.27,190.62 843.25,159.02 850.24,194.75 857.22,164.43 864.21,195.74 871.19,176.17 878.17,169.25 885.16,182.17 892.14,218.96 899.13,174.75 906.11,199.10 913.10,182.51 920.08,171.67 927.06,176.09 934.05,180.54 941.03,172.92 948.02,201.67 955.00,179.19"/>
</svg>