<svg xmlns="http://www.w3.org/2000/svg" width="720" height="320" viewBox="0 0 720 320">
<rect width="100%" height="100%" fill="white"/>
<style>text{font-family:Noto Serif CJK JP,serif;font-size:12px;fill:#1d2433}.title{font-size:16px;font-weight:700}.axis{stroke:#475569;stroke-width:1}.grid{stroke:#e2e8f0;stroke-width:1}.line{fill:none;stroke-width:1.8}</style>
<text class="title" x="360.0" y="18" text-anchor="middle">正規ホワイトノイズから作成した標本系列</text>
<line class="grid" x1="54" y1="262.5" x2="702" y2="262.5"/>
<text x="46" y="266.5" text-anchor="end">-4</text>
<line class="grid" x1="54" y1="223.4" x2="702" y2="223.4"/>
<text x="46" y="227.4" text-anchor="end">-2</text>
<line class="grid" x1="54" y1="184.3" x2="702" y2="184.3"/>
<text x="46" y="188.3" text-anchor="end">0</text>
<line class="grid" x1="54" y1="145.2" x2="702" y2="145.2"/>
<text x="46" y="149.2" text-anchor="end">2</text>
<line class="grid" x1="54" y1="106.2" x2="702" y2="106.2"/>
<text x="46" y="110.2" text-anchor="end">4</text>
<line class="grid" x1="54" y1="67.1" x2="702" y2="67.1"/>
<text x="46" y="71.1" text-anchor="end">6</text>
<line class="grid" x1="54" y1="28.0" x2="702" y2="28.0"/>
<text x="46" y="32.0" text-anchor="end">8</text>
<line class="grid" x1="54.0" y1="28" x2="54.0" y2="282"/>
<text x="54.0" y="305" text-anchor="middle">1</text>
<line class="grid" x1="178.4" y1="28" x2="178.4" y2="282"/>
<text x="178.4" y="305" text-anchor="middle">20</text>
<line class="grid" x1="309.3" y1="28" x2="309.3" y2="282"/>
<text x="309.3" y="305" text-anchor="middle">40</text>
<line class="grid" x1="440.2" y1="28" x2="440.2" y2="282"/>
<text x="440.2" y="305" text-anchor="middle">60</text>
<line class="grid" x1="571.1" y1="28" x2="571.1" y2="282"/>
<text x="571.1" y="305" text-anchor="middle">80</text>
<line class="grid" x1="702.0" y1="28" x2="702.0" y2="282"/>
<text x="702.0" y="305" text-anchor="middle">100</text>
<line class="axis" x1="54" y1="282" x2="702" y2="282"/>
<line class="axis" x1="54" y1="28" x2="54" y2="282"/>
<polyline class="line" stroke="#2563eb" points="54.0,155.1 60.5,137.3 67.1,166.4 73.6,177.3 80.2,172.1 86.7,152.6 93.3,165.5 99.8,168.5 106.4,156.4 112.9,136.0 119.5,167.5 126.0,133.5 132.5,137.8 139.1,139.8 145.6,149.9 152.2,145.2 158.7,146.9 165.3,131.9 171.8,160.4 178.4,163.2 184.9,177.3 191.5,171.5 198.0,152.9 204.5,181.0 211.1,150.6 217.6,172.3 224.2,167.2 230.7,159.0 237.3,167.8 243.8,172.1 250.4,130.2 256.9,169.9 263.5,129.3 270.0,176.5 276.5,168.5 283.1,161.2 289.6,151.4 296.2,183.3 302.7,164.8 309.3,186.0 315.8,182.1 322.4,192.5 328.9,149.3 335.5,139.5 342.0,163.9 348.5,152.7 355.1,195.8 361.6,168.9 368.2,157.2 374.7,113.0 381.3,227.7 387.8,130.7 394.4,167.5 400.9,159.8 407.5,191.9 414.0,163.8 420.5,152.7 427.1,174.5 433.6,166.1 440.2,124.0 446.7,150.4 453.3,145.5 459.8,169.3 466.4,117.3 472.9,146.8 479.5,152.7 486.0,168.5 492.5,153.3 499.1,192.3 505.6,170.5 512.2,159.3 518.7,135.3 525.3,158.8 531.8,197.8 538.4,146.7 544.9,154.6 551.5,155.9 558.0,154.9 564.5,168.5 571.1,153.7 577.6,144.9 584.2,162.0 590.7,188.2 597.3,181.9 603.8,209.4 610.4,165.9 616.9,171.1 623.5,154.9 630.0,143.6 636.5,176.8 643.1,173.8 649.6,124.0 656.2,150.9 662.7,128.7 669.3,158.6 675.8,198.7 682.4,161.9 688.9,163.7 695.5,160.6 702.0,166.9"/>
<polyline class="line" stroke="#dc2626" points="54.0,125.9 60.5,90.2 67.1,148.4 73.6,170.3 80.2,159.9 86.7,121.0 93.3,146.8 99.8,152.6 106.4,128.5 112.9,87.8 119.5,150.8 126.0,82.6 132.5,91.3 139.1,95.3 145.6,115.4 152.2,106.0 158.7,109.5 165.3,79.4 171.8,136.5 178.4,142.0 184.9,170.4 191.5,158.7 198.0,121.4 204.5,177.6 211.1,116.9 217.6,160.3 224.2,150.1 230.7,133.7 237.3,151.3 243.8,159.9 250.4,76.1 256.9,155.4 263.5,74.2 270.0,168.7 276.5,152.7 283.1,138.1 289.6,118.6 296.2,182.2 302.7,145.4 309.3,187.6 315.8,180.0 322.4,200.7 328.9,114.4 335.5,94.7 342.0,143.5 348.5,121.1 355.1,207.3 361.6,153.5 368.2,130.1 374.7,41.8 381.3,271.0 387.8,77.1 394.4,150.7 400.9,135.2 407.5,199.6 414.0,143.3 420.5,121.0 427.1,164.7 433.6,147.8 440.2,63.8 446.7,116.6 453.3,106.7 459.8,154.4 466.4,50.3 472.9,109.2 479.5,121.1 486.0,152.6 492.5,122.2 499.1,200.3 505.6,156.6 512.2,134.2 518.7,86.3 525.3,133.3 531.8,211.3 538.4,109.0 544.9,124.8 551.5,127.5 558.0,125.5 564.5,152.6 571.1,123.1 577.6,105.4 584.2,139.7 590.7,192.1 597.3,179.5 603.8,234.4 610.4,147.5 616.9,158.0 623.5,125.5 630.0,102.8 636.5,169.2 643.1,163.3 649.6,63.8 656.2,117.5 662.7,73.0 669.3,132.9 675.8,213.1 682.4,139.6 688.9,143.0 695.5,136.8 702.0,149.5"/>
<rect x="482" y="36" width="208" height="50" fill="white" stroke="#cbd5e1"/>
<line x1="496" y1="53" x2="526" y2="53" stroke="#2563eb" stroke-width="2"/><text x="534" y="57">mu=1, sigma=1</text>
<line x1="496" y1="73" x2="526" y2="73" stroke="#dc2626" stroke-width="2"/><text x="534" y="77">mu=2, sigma=2</text>
<text x="360.0" y="318" text-anchor="middle">t</text>
</svg>
