<svg xmlns="http://www.w3.org/2000/svg" width="980" height="420" viewBox="0 0 980 420">
<style>text{font-family:"Noto Sans",sans-serif;fill:#263142;font-size:13px}.title{font-size:20px;font-weight:700}.subtitle{font-size:15px;font-weight:700}.axis{stroke:#526173;stroke-width:1}.grid{stroke:#d8dee8;stroke-width:1}.line{fill:none;stroke-width:2}</style>
<text class="title" x="490.0" y="28" text-anchor="middle">MA(1) simulated series with common y-axis</text>
<text class="subtitle" x="247.5" y="67" text-anchor="middle">(a) mu=0, theta=0.8, sigma=1</text>
<line class="grid" x1="65" y1="358.00" x2="465" y2="358.00"/>
<text x="58" y="362.00" text-anchor="end">-10.1</text>
<line class="grid" x1="65" y1="288.00" x2="465" y2="288.00"/>
<text x="58" y="292.00" text-anchor="end">-6.0</text>
<line class="grid" x1="65" y1="218.00" x2="465" y2="218.00"/>
<text x="58" y="222.00" text-anchor="end">-1.9</text>
<line class="grid" x1="65" y1="148.00" x2="465" y2="148.00"/>
<text x="58" y="152.00" text-anchor="end">2.2</text>
<line class="grid" x1="65" y1="78.00" x2="465" y2="78.00"/>
<text x="58" y="82.00" text-anchor="end">6.3</text>
<line class="axis" x1="65" y1="358" x2="465" y2="358"/>
<line class="axis" x1="65" y1="78" x2="65" y2="358"/>
<text x="65.00" y="382" text-anchor="middle">1</text>
<text x="161.97" y="382" text-anchor="middle">25</text>
<text x="262.98" y="382" text-anchor="middle">50</text>
<text x="363.99" y="382" text-anchor="middle">75</text>
<text x="465.00" y="382" text-anchor="middle">100</text>
<polyline class="line" style="stroke:#1f77b4" points="65.00,193.60 69.04,186.48 73.08,197.97 77.12,200.35 81.16,147.10 85.20,154.36 89.24,186.41 93.28,205.37 97.32,174.67 101.36,212.63 105.40,216.23 109.44,130.41 113.48,108.32 117.53,177.08 121.57,213.42 125.61,180.42 129.65,188.17 133.69,210.50 137.73,204.13 141.77,163.01 145.81,150.09 149.85,183.42 153.89,184.65 157.93,182.96 161.97,195.90 166.01,204.15 170.05,208.34 174.09,225.83 178.13,231.22 182.17,225.17 186.21,181.23 190.25,190.27 194.29,209.58 198.33,219.12 202.37,214.62 206.41,171.71 210.45,165.00 214.49,168.19 218.54,172.13 222.58,181.57 226.62,176.54 230.66,164.26 234.70,184.34 238.74,191.01 242.78,171.06 246.82,162.85 250.86,183.16 254.90,199.52 258.94,200.37 262.98,219.81 267.02,212.71 271.06,220.00 275.10,182.75 279.14,131.12 283.18,174.01 287.22,168.98 291.26,154.61 295.30,185.24 299.34,190.94 303.38,196.92 307.42,169.05 311.46,169.99 315.51,209.53 319.55,213.62 323.59,183.15 327.63,161.21 331.67,182.46 335.71,162.17 339.75,152.44 343.79,159.58 347.83,141.85 351.87,135.72 355.91,159.74 359.95,191.95 363.99,192.13 368.03,176.34 372.07,169.97 376.11,178.58 380.15,190.28 384.19,187.39 388.23,191.46 392.27,223.52 396.31,197.58 400.35,185.88 404.39,223.21 408.43,219.16 412.47,201.94 416.52,216.33 420.56,188.97 424.60,196.79 428.64,214.79 432.68,194.00 436.72,168.83 440.76,163.14 444.80,182.56 448.84,194.40 452.88,203.17 456.92,217.22 460.96,199.95 465.00,184.67"/>
<text class="subtitle" x="732.5" y="67" text-anchor="middle">(f) mu=-2, theta=-0.8, sigma=2</text>
<line class="grid" x1="550" y1="358.00" x2="950" y2="358.00"/>
<text x="543" y="362.00" text-anchor="end">-10.1</text>
<line class="grid" x1="550" y1="288.00" x2="950" y2="288.00"/>
<text x="543" y="292.00" text-anchor="end">-6.0</text>
<line class="grid" x1="550" y1="218.00" x2="950" y2="218.00"/>
<text x="543" y="222.00" text-anchor="end">-1.9</text>
<line class="grid" x1="550" y1="148.00" x2="950" y2="148.00"/>
<text x="543" y="152.00" text-anchor="end">2.2</text>
<line class="grid" x1="550" y1="78.00" x2="950" y2="78.00"/>
<text x="543" y="82.00" text-anchor="end">6.3</text>
<line class="axis" x1="550" y1="358" x2="950" y2="358"/>
<line class="axis" x1="550" y1="78" x2="550" y2="358"/>
<text x="550.00" y="382" text-anchor="middle">1</text>
<text x="646.97" y="382" text-anchor="middle">25</text>
<text x="747.98" y="382" text-anchor="middle">50</text>
<text x="848.99" y="382" text-anchor="middle">75</text>
<text x="950.00" y="382" text-anchor="middle">100</text>
<polyline class="line" style="stroke:#d95f02" points="550.00,235.17 554.04,198.09 558.08,228.07 562.12,256.90 566.16,143.97 570.20,293.41 574.24,170.96 578.28,274.43 582.32,119.30 586.36,249.04 590.40,193.49 594.44,285.58 598.48,216.72 602.53,200.56 606.57,279.96 610.61,187.45 614.65,228.67 618.69,226.60 622.73,177.78 626.77,214.59 630.81,217.93 634.85,231.99 638.89,214.15 642.93,220.90 646.97,227.74 651.01,257.19 655.05,121.98 659.09,351.15 663.13,125.57 667.17,212.88 671.21,242.50 675.25,270.13 679.29,192.08 683.33,229.85 687.37,218.48 691.41,222.15 695.45,197.52 699.49,251.02 703.54,252.49 707.58,194.13 711.62,189.66 715.66,191.17 719.70,243.72 723.74,229.61 727.78,211.68 731.82,86.81 735.86,342.05 739.90,187.46 743.94,207.39 747.98,201.69 752.02,269.52 756.06,198.11 760.10,248.94 764.14,165.94 768.18,214.24 772.22,310.32 776.26,139.64 780.30,226.43 784.34,228.22 788.38,288.23 792.42,197.90 796.46,201.38 800.51,235.77 804.55,243.20 808.59,190.32 812.63,190.40 816.67,256.60 820.71,190.84 824.75,198.09 828.79,208.40 832.83,287.72 836.87,195.02 840.91,245.95 844.95,127.41 848.99,265.20 853.03,196.69 857.07,172.87 861.11,316.53 865.15,163.47 869.19,246.72 873.23,236.10 877.27,258.73 881.31,201.88 885.35,225.49 889.39,186.41 893.43,207.30 897.47,254.68 901.52,295.57 905.56,84.85 909.60,163.72 913.64,333.43 917.68,199.92 921.72,263.31 925.76,215.21 929.80,142.78 933.84,258.42 937.88,209.32 941.92,229.20 945.96,213.24 950.00,203.59"/>
</svg>