<svg xmlns="http://www.w3.org/2000/svg" width="980" height="420" viewBox="0 0 980 420">
<style>text{font-family:"Noto Sans",sans-serif;fill:#263142;font-size:13px}.title{font-size:20px;font-weight:700}.subtitle{font-size:15px;font-weight:700}.axis{stroke:#526173;stroke-width:1}.grid{stroke:#d8dee8;stroke-width:1}.bar{stroke:#1f77b4;stroke-width:7}.bound{stroke:#d95f02;stroke-width:1.5;stroke-dasharray:7 5}</style>
<text class="title" x="490.0" y="28" text-anchor="middle">Correlograms of MA(1) series</text>
<text class="subtitle" x="247.5" y="67" text-anchor="middle">(a)</text>
<line class="grid" x1="65" y1="358.00" x2="465" y2="358.00"/>
<text x="58" y="362.00" text-anchor="end">-0.45</text>
<line class="grid" x1="65" y1="288.00" x2="465" y2="288.00"/>
<text x="58" y="292.00" text-anchor="end">-0.10</text>
<line class="grid" x1="65" y1="218.00" x2="465" y2="218.00"/>
<text x="58" y="222.00" text-anchor="end">0.25</text>
<line class="grid" x1="65" y1="148.00" x2="465" y2="148.00"/>
<text x="58" y="152.00" text-anchor="end">0.60</text>
<line class="grid" x1="65" y1="78.00" x2="465" y2="78.00"/>
<text x="58" y="82.00" text-anchor="end">0.95</text>
<line class="axis" x1="65" y1="268.00" x2="465" y2="268.00"/>
<line class="axis" x1="65" y1="78" x2="65" y2="358"/>
<line class="bound" x1="65" y1="228.80" x2="465" y2="228.80"/>
<line class="bound" x1="65" y1="307.20" x2="465" y2="307.20"/>
<line class="bar" x1="65.00" y1="268.00" x2="65.00" y2="165.29"/>
<text x="65.00" y="382" text-anchor="middle">1</text>
<line class="bar" x1="109.44" y1="268.00" x2="109.44" y2="261.15"/>
<text x="109.44" y="382" text-anchor="middle">2</text>
<line class="bar" x1="153.89" y1="268.00" x2="153.89" y2="251.56"/>
<text x="153.89" y="382" text-anchor="middle">3</text>
<line class="bar" x1="198.33" y1="268.00" x2="198.33" y2="250.74"/>
<text x="198.33" y="382" text-anchor="middle">4</text>
<line class="bar" x1="242.78" y1="268.00" x2="242.78" y2="280.81"/>
<text x="242.78" y="382" text-anchor="middle">5</text>
<line class="bar" x1="287.22" y1="268.00" x2="287.22" y2="281.80"/>
<text x="287.22" y="382" text-anchor="middle">6</text>
<line class="bar" x1="331.67" y1="268.00" x2="331.67" y2="246.71"/>
<text x="331.67" y="382" text-anchor="middle">7</text>
<line class="bar" x1="376.11" y1="268.00" x2="376.11" y2="252.13"/>
<text x="376.11" y="382" text-anchor="middle">8</text>
<line class="bar" x1="420.56" y1="268.00" x2="420.56" y2="290.32"/>
<text x="420.56" y="382" text-anchor="middle">9</text>
<line class="bar" x1="465.00" y1="268.00" x2="465.00" y2="292.33"/>
<text x="465.00" y="382" text-anchor="middle">10</text>
<text class="subtitle" x="732.5" y="67" text-anchor="middle">(f)</text>
<line class="grid" x1="550" y1="358.00" x2="950" y2="358.00"/>
<text x="543" y="362.00" text-anchor="end">-0.45</text>
<line class="grid" x1="550" y1="288.00" x2="950" y2="288.00"/>
<text x="543" y="292.00" text-anchor="end">-0.10</text>
<line class="grid" x1="550" y1="218.00" x2="950" y2="218.00"/>
<text x="543" y="222.00" text-anchor="end">0.25</text>
<line class="grid" x1="550" y1="148.00" x2="950" y2="148.00"/>
<text x="543" y="152.00" text-anchor="end">0.60</text>
<line class="grid" x1="550" y1="78.00" x2="950" y2="78.00"/>
<text x="543" y="82.00" text-anchor="end">0.95</text>
<line class="axis" x1="550" y1="268.00" x2="950" y2="268.00"/>
<line class="axis" x1="550" y1="78" x2="550" y2="358"/>
<line class="bound" x1="550" y1="228.80" x2="950" y2="228.80"/>
<line class="bound" x1="550" y1="307.20" x2="950" y2="307.20"/>
<line class="bar" x1="550.00" y1="268.00" x2="550.00" y2="369.98"/>
<text x="550.00" y="382" text-anchor="middle">1</text>
<line class="bar" x1="594.44" y1="268.00" x2="594.44" y2="262.59"/>
<text x="594.44" y="382" text-anchor="middle">2</text>
<line class="bar" x1="638.89" y1="268.00" x2="638.89" y2="282.24"/>
<text x="638.89" y="382" text-anchor="middle">3</text>
<line class="bar" x1="683.33" y1="268.00" x2="683.33" y2="245.18"/>
<text x="683.33" y="382" text-anchor="middle">4</text>
<line class="bar" x1="727.78" y1="268.00" x2="727.78" y2="272.94"/>
<text x="727.78" y="382" text-anchor="middle">5</text>
<line class="bar" x1="772.22" y1="268.00" x2="772.22" y2="266.13"/>
<text x="772.22" y="382" text-anchor="middle">6</text>
<line class="bar" x1="816.67" y1="268.00" x2="816.67" y2="281.14"/>
<text x="816.67" y="382" text-anchor="middle">7</text>
<line class="bar" x1="861.11" y1="268.00" x2="861.11" y2="269.20"/>
<text x="861.11" y="382" text-anchor="middle">8</text>
<line class="bar" x1="905.56" y1="268.00" x2="905.56" y2="252.66"/>
<text x="905.56" y="382" text-anchor="middle">9</text>
<line class="bar" x1="950.00" y1="268.00" x2="950.00" y2="291.83"/>
<text x="950.00" y="382" text-anchor="middle">10</text>
</svg>